/* XPM */
static const char * angle_deg_s1_xpm[] = {
"45 16 55 1",
" 	c None",
".	c #C8DAD0",
"+	c #000000",
"@	c #94A19A",
"#	c #9FADA5",
"$	c #1E211F",
"%	c #B0C0B7",
"&	c #3C413E",
"*	c #090A09",
"=	c #060606",
"-	c #383D3A",
";	c #AFBFB6",
">	c #95A29B",
",	c #9EACA5",
"'	c #BBCCC3",
")	c #BDCEC4",
"!	c #9BA9A2",
"~	c #242826",
"{	c #909D96",
"]	c #8E9B94",
"^	c #2C302E",
"/	c #929F98",
"(	c #2E3230",
"_	c #B6C7BE",
":	c #C7D9CF",
"<	c #BDCEC5",
"[	c #9BA8A1",
"}	c #9DABA3",
"|	c #B9CAC0",
"1	c #B9C9C0",
"2	c #030303",
"3	c #C3D4CB",
"4	c #C2D4CA",
"5	c #030404",
"6	c #020202",
"7	c #B1C1B9",
"8	c #9AA8A1",
"9	c #C6D8CE",
"0	c #919F97",
"a	c #88948D",
"b	c #C4D6CC",
"c	c #95A39B",
"d	c #BECFC6",
"e	c #BCCDC4",
"f	c #B9CAC1",
"g	c #9EACA4",
"h	c #1D201E",
"i	c #B2C2B9",
"j	c #424845",
"k	c #0D0E0D",
"l	c #97A59D",
"m	c #131514",
"n	c #070707",
"o	c #2B2F2D",
"p	c #97A49D",
".............................................",
".............................................",
".............................................",
".............................................",
"......++.................................@@..",
"......++.................................@@..",
"......++.................................@@..",
"..#$++++.%&*=-;.#$++++...@@@@.@@@>,'.)!@@@@..",
"..~+{]++.^+/#+(.~+]]++...@@_:...:<@[.}@|1@@..",
"..2+34++.5++++6.2+34++...@@:..78@@@@.@@99@@..",
"..~+0{++.(+ab...~+0]++...@@...c@de@@.}@f|@@..",
"..gh++++.ijk+++.gh++++...@@...;l@@@@.)!@@@@..",
"..................9c+m.......................",
".................++nop.......................",
".............................................",
"............................................."};
