/* XPM */
static const char * angle_rad_xpm[] = {
"45 16 41 1",
" 	c None",
".	c #FAFAFA",
"+	c #DEDEDE",
"@	c #000000",
"#	c #F4F4F4",
"$	c #E2E2E2",
"%	c #F6F6F6",
"&	c #E6E6E6",
"*	c #DFDFDF",
"=	c #E5E5E5",
"-	c #060606",
";	c #323232",
">	c #BFBFBF",
",	c #C7C7C7",
"'	c #262626",
")	c #E3E3E3",
"!	c #F2F2F2",
"~	c #F1F1F1",
"{	c #E4E4E4",
"]	c #A6A6A6",
"^	c #F9F9F9",
"/	c #F7F7F7",
"(	c #C8C8C8",
"_	c #222222",
":	c #2E2E2E",
"<	c #B4B4B4",
"[	c #B2B2B2",
"}	c #909090",
"|	c #212121",
"1	c #030303",
"2	c #F3F3F3",
"3	c #080808",
"4	c #CBCBCB",
"5	c #C3C3C3",
"6	c #B6B6B6",
"7	c #E7E7E7",
"8	c #848484",
"9	c #111111",
"0	c #C6C6C6",
"a	c #252525",
"b	c #E0E0E0",
".............................................",
".............................................",
".............................................",
".............................................",
"......++.................................@@..",
"......++.................................@@..",
"......++.................................@@..",
"..#$++++.%&*+=%.#$++++...@@@@.@@@-;>.,'@@@@..",
"..)+!~++.{+!#+{.)+~~++...@@]^.../(@_.:@<[@@..",
"..++^^++.++++++.++^^++...@@/..}|1@@@.1@#2@@..",
"..)+!!++.{+~^...)+!~++...@@...3@45@@.:@6<@@..",
"..#$++++.%7*+++.#$++++...@@...89@@@@.0a@@@@..",
"..................^!+b.......................",
".................+++{2.......................",
".............................................",
"............................................."};
