/* XPM */
static const char * enter_unsel_xpm[] = {
"79 29 103 2",
"  	c None",
". 	c #484646",
"+ 	c #322C2B",
"@ 	c #686C70",
"# 	c #000000",
"$ 	c #4A4B49",
"% 	c #6F6861",
"& 	c #71706C",
"* 	c #473F3E",
"= 	c #100807",
"- 	c #444243",
"; 	c #696665",
"> 	c #716C63",
", 	c #9D9897",
"' 	c #3C312C",
") 	c #515050",
"! 	c #6D6C67",
"~ 	c #5A5D5B",
"{ 	c #959D9C",
"] 	c #6D5F54",
"^ 	c #63615F",
"/ 	c #897867",
"( 	c #707375",
"_ 	c #C5C3C2",
": 	c #5A5A57",
"< 	c #6A655F",
"[ 	c #92969C",
"} 	c #BCB8B6",
"| 	c #715F51",
"1 	c #4D4C47",
"2 	c #635E59",
"3 	c #80868C",
"4 	c #2F2E28",
"5 	c #5D5B56",
"6 	c #6B6460",
"7 	c #82766D",
"8 	c #120D07",
"9 	c #25201A",
"0 	c #3D352C",
"a 	c #37322B",
"b 	c #4A4646",
"c 	c #2B2827",
"d 	c #070707",
"e 	c #060604",
"f 	c #060504",
"g 	c #0D0A08",
"h 	c #0A0605",
"i 	c #070401",
"j 	c #0C0904",
"k 	c #0F0D08",
"l 	c #0A0803",
"m 	c #0D0C07",
"n 	c #0E0D08",
"o 	c #0D0B06",
"p 	c #0D0A06",
"q 	c #12100B",
"r 	c #13110C",
"s 	c #0E0C07",
"t 	c #0B0B08",
"u 	c #0D0C08",
"v 	c #0D0B07",
"w 	c #0F0C09",
"x 	c #110D0B",
"y 	c #0C0805",
"z 	c #070501",
"A 	c #0F0E09",
"B 	c #100F0A",
"C 	c #090702",
"D 	c #0A0904",
"E 	c #060501",
"F 	c #080702",
"G 	c #080701",
"H 	c #080601",
"I 	c #090703",
"J 	c #070500",
"K 	c #0C0A05",
"L 	c #0B0904",
"M 	c #0B0804",
"N 	c #0C0A06",
"O 	c #0C0905",
"P 	c #0E0C09",
"Q 	c #110F0B",
"R 	c #0E0C08",
"S 	c #0C0A07",
"T 	c #0F0D09",
"U 	c #161412",
"V 	c #171514",
"W 	c #14110F",
"X 	c #171513",
"Y 	c #131210",
"Z 	c #100E0C",
"` 	c #100D0C",
" .	c #0D0C0A",
"..	c #0D0D0C",
"+.	c #121613",
"@.	c #0F1311",
"#.	c #101614",
"$.	c #121210",
"%.	c #0F100D",
"&.	c #0C0B09",
"*.	c #9B999B",
"=.	c #6C6F73",
"-.	c #929497",
". + + + + + + + + + + + + + + + + + + + + + + + + + + + + + + + + + + + + + + + + + + + + + + + + + + + + + + + + + + + + + + + + + + + + + + + + + + + + + @ ",
"# # # # # # # # # # # # # # # # # # # # # # # # # # # # # # # # # # # # # # # # # # # # # # # # # # # # # # # # # # # # # # # # # # # # # # # # # # # # # # # ",
"# # # # # # # # # # # # # # # # # # # # # # # # # # # # # # # # # # # # # # # # # # # # # # # # # # # # # # # # # # # # # # # # # # # # # # # # # # # # # # # ",
"# # # # $ % & & & & & & & & & & & & & & & & & & & & & & & & & & & & & & & & & & & & & & & & & & & & & & & & & & & & & & & & & & & & & & & & & & & & % * = # # ",
"# # # - ; > > > > > > > > > > > > > > > > > > > > > > > > > > > > > > > > > > > > > > > > > > > > > > > > > > > > > > > > > > > > > > > > > > > > > , , ' # # ",
"# # # ) ! > > > > > > > > > > > > > > > > > > > > > > > > > > > > > > > > > > > > > > > > > > > > > > > > > > > > > > > > > > > > > > > > > > > > > ~ { ] # # ",
"# # # ^ ! > > > > > > > > > > > > > > > > > > > > > > > > > > > > > > > > > > > > > > > > > > > > > > > > > > > > > > > > > > > > > > > > > > > > > ~ { / # # ",
"# # # ^ ! > > > > > > > > > > > > > > > > > > > > > > > > > > > > > > > > > > > > > > > > > > > > > > > > > > > > > > > > > > > > > > > > > > > > > ~ { / # # ",
"# # # ^ ! > > > > > > > > > > > > > > > > > > > > > > > > > > > > > > > > > > > > > > > > > > > > > > > > > > > > > > > > > > > > > > > > > > > > > ~ { / # # ",
"# # # ^ ! > > > > > > > > > > > > > > > > > > > > > > > > > > > > > > > > > > > > > > > > > > > > > > > > > > > > > > > > > > > > > > > > > > > > > ~ { / # # ",
"# # # ^ ! > > > > > > > > > > > > > > > > > > > > > > > > > > > > > > > > > > > > > > > > > > > > > > > > > > > > > > > > > > > > > > > > > > > > > ~ { / # # ",
"# # # ^ ! > > > > > > > > > > > > > > > > > > > > > > > > > > > > > > > > > > > > > > > > > > > > > > > > > > > > > > > > > > > > > > > > > > > > > ~ { / # # ",
"# # # ^ ! > > > > > > > > > > > > > > > > > > > > > > > > > > > > > > > > > > > > > > > > > > > > > > > > > > > > > > > > > > > > > > > > > > > > > ~ { / # # ",
"# # # ^ ! > > > > > > > > > > > > > > > > > > > > > > > > > > > > > > > > > > > > > > > > > > > > > > > > > > > > > > > > > > > > > > > > > > > > > ~ { / # # ",
"# # # ^ ! > > > > > > > > > > > > > > > > > > > > > > > > > > > > > > > > > > > > > > > > > > > > > > > > > > > > > > > > > > > > > > > > > > > > > ~ { / # # ",
"# # # ^ ! > > > > > > > > > > > > > > > > > > > > > > > > > > > > > > > > > > > > > > > > > > > > > > > > > > > > > > > > > > > > > > > > > > > > > ( _ / # # ",
"# # # : < < < < < < < < < < < < < < < < < < < < < < < < < < < < < < < < < < < < < < < < < < < < < < < < < < < < < < < < < < < < < < < < < < < < < < [ } | # # ",
"# # # 1 2 2 2 2 2 2 2 2 2 2 2 2 2 2 2 2 2 2 2 2 2 2 2 2 2 2 2 2 2 2 2 2 2 2 2 2 2 2 2 2 2 2 2 2 2 2 2 2 2 2 2 2 2 2 2 2 2 2 2 2 2 2 2 2 2 2 2 2 2 2 [ } | # # ",
"# # # 1 2 2 2 2 2 2 2 2 2 2 2 2 2 2 2 2 2 2 2 2 2 2 2 2 2 2 2 2 2 2 2 2 2 2 2 2 2 2 2 2 2 2 2 2 2 2 2 2 2 2 2 2 2 2 2 2 2 2 2 2 2 2 2 2 2 2 2 2 2 2 [ } | # # ",
"# # # 1 2 2 2 2 2 2 2 2 2 2 2 2 2 2 2 2 2 2 2 2 2 2 2 2 2 2 2 2 2 2 2 2 2 2 2 2 2 2 2 2 2 2 2 2 2 2 2 2 2 2 2 2 2 2 2 2 2 2 2 2 2 2 2 2 2 2 2 2 2 2 [ } | # # ",
"# # # 1 2 2 2 2 2 2 2 2 2 2 2 2 2 2 2 2 2 2 2 2 2 2 2 2 2 2 2 2 2 2 2 2 2 2 2 2 2 2 2 2 2 2 2 2 2 2 2 2 2 2 2 2 2 2 2 2 2 2 2 2 2 2 2 2 2 2 2 2 2 2 [ } | # # ",
"# # # 1 2 2 2 2 2 2 2 2 2 2 2 2 2 2 2 2 2 2 2 2 2 2 2 2 2 2 2 2 2 2 2 2 2 2 2 2 2 2 2 2 2 2 2 2 2 2 2 2 2 2 2 2 2 2 2 2 2 2 2 2 2 2 2 2 2 2 2 2 2 2 [ } | # # ",
"# # # 1 2 2 2 2 2 2 2 2 2 2 2 2 2 2 2 2 2 2 2 2 2 2 2 2 2 2 2 2 2 2 2 2 2 2 2 2 2 2 2 2 2 2 2 2 2 2 2 2 2 2 2 2 2 2 2 2 2 2 2 2 2 2 2 2 2 2 2 2 2 2 [ } | # # ",
"# # # 1 2 2 2 2 2 2 2 2 2 2 2 2 2 2 2 2 2 2 2 2 2 2 2 2 2 2 2 2 2 2 2 2 2 2 2 2 2 2 2 2 2 2 2 2 2 2 2 2 2 2 2 2 2 2 2 2 2 2 2 2 2 2 2 2 2 2 2 2 2 2 [ } | # # ",
"# # # 1 2 2 2 2 2 2 2 2 2 2 2 2 2 2 2 2 2 2 2 2 2 2 2 2 2 2 2 2 2 2 2 2 2 2 2 2 2 2 2 2 2 2 2 2 2 2 2 2 2 2 2 2 2 2 2 2 2 2 2 2 2 2 2 2 2 2 2 2 2 2 3 } ] # # ",
"# # # 4 5 6 6 6 6 6 6 6 6 6 6 6 6 6 6 6 6 6 6 6 6 6 6 6 6 6 6 6 6 6 6 6 6 6 6 6 6 6 6 6 6 6 6 6 6 6 6 6 6 6 6 6 6 6 6 6 6 6 6 6 6 6 6 6 6 6 6 6 6 6 7 7 # # # ",
"# # # 8 9 0 0 0 0 0 0 0 0 0 0 0 0 0 0 0 0 0 0 0 0 0 0 0 0 0 0 0 0 0 0 0 0 0 0 0 0 0 0 0 0 0 0 0 0 0 0 0 0 0 0 0 0 0 0 0 0 0 0 0 0 0 0 0 0 0 0 0 0 0 a # # # # ",
"b c d e f g h i j k l m n o p o q r s t u v w x y z A B C D E F C G H I D J K K z n L o K C M N O P Q R S T U V W X Y Z ` `  ...+.@.#.$.%.&.# # # # # # # # # ",
"*.=.=.=.=.=.=.=.=.=.=.=.=.=.=.=.=.=.=.=.=.=.=.=.=.=.=.=.=.=.=.=.=.=.=.=.=.=.=.=.=.=.=.=.=.=.=.=.=.=.=.=.=.=.=.=.=.=.=.=.=.=.=.=.=.=.=.=.=.=.=.=.=.=.=.=.=.=.-."};
