/* XPM */
static const char * gray_small_sel_xpm[] = {
"35 29 171 2",
"  	c None",
". 	c #727274",
"+ 	c #2D2D2F",
"@ 	c #000000",
"# 	c #12151A",
"$ 	c #061117",
"% 	c #030E13",
"& 	c #262626",
"* 	c #3A3A39",
"= 	c #5C5A57",
"- 	c #86847F",
"; 	c #898782",
"> 	c #898681",
", 	c #85837D",
"' 	c #84837A",
") 	c #89857F",
"! 	c #888280",
"~ 	c #86827E",
"{ 	c #84827C",
"] 	c #83857C",
"^ 	c #7F827F",
"/ 	c #87847B",
"( 	c #88867B",
"_ 	c #81837D",
": 	c #84827F",
"< 	c #89837E",
"[ 	c #86827D",
"} 	c #888580",
"| 	c #878480",
"1 	c #87847F",
"2 	c #8B8883",
"3 	c #908C88",
"4 	c #807578",
"5 	c #031418",
"6 	c #353632",
"7 	c #565454",
"8 	c #77766F",
"9 	c #716C63",
"0 	c #857E82",
"a 	c #9B9E9A",
"b 	c #020F11",
"c 	c #616166",
"d 	c #5C575B",
"e 	c #D0D9DD",
"f 	c #7E6752",
"g 	c #051C1D",
"h 	c #0C201F",
"i 	c #302514",
"j 	c #071715",
"k 	c #08151B",
"l 	c #091B1F",
"m 	c #0A2124",
"n 	c #0C1C20",
"o 	c #0F1D23",
"p 	c #0F1920",
"q 	c #16242C",
"r 	c #162731",
"s 	c #6E6767",
"t 	c #69645E",
"u 	c #626060",
"v 	c #C5C8D1",
"w 	c #785F50",
"x 	c #0E1F2C",
"y 	c #564A40",
"z 	c #555350",
"A 	c #645D5D",
"B 	c #645C59",
"C 	c #655D5A",
"D 	c #645D5A",
"E 	c #635E59",
"F 	c #645F5A",
"G 	c #65605B",
"H 	c #65605A",
"I 	c #655F59",
"J 	c #64605A",
"K 	c #62605B",
"L 	c #625F5A",
"M 	c #63605A",
"N 	c #625F59",
"O 	c #626059",
"P 	c #5B5C5C",
"Q 	c #919692",
"R 	c #132332",
"S 	c #655D59",
"T 	c #665E5B",
"U 	c #655E5B",
"V 	c #645E5A",
"W 	c #635E5A",
"X 	c #645F5B",
"Y 	c #645F59",
"Z 	c #63615C",
"` 	c #63605C",
" .	c #64615C",
"..	c #61605C",
"+.	c #63605B",
"@.	c #605F58",
"#.	c #323940",
"$.	c #665D5B",
"%.	c #635E5B",
"&.	c #625F5B",
"*.	c #605F5C",
"=.	c #615F5B",
"-.	c #615E59",
";.	c #5F5E58",
">.	c #625D57",
",.	c #645E59",
"'.	c #655F5A",
").	c #635D58",
"!.	c #625D58",
"~.	c #645F5C",
"{.	c #65605C",
"].	c #615E57",
"^.	c #625F58",
"/.	c #616059",
"(.	c #615E58",
"_.	c #636059",
":.	c #64615A",
"<.	c #5E5B56",
"[.	c #635E58",
"}.	c #656059",
"|.	c #64615B",
"1.	c #635F59",
"2.	c #62615A",
"3.	c #65625C",
"4.	c #65625B",
"5.	c #64605B",
"6.	c #645E58",
"7.	c #645F58",
"8.	c #625D59",
"9.	c #635F5A",
"0.	c #625E5A",
"a.	c #65625D",
"b.	c #68635F",
"c.	c #66605C",
"d.	c #67605C",
"e.	c #64615D",
"f.	c #6C696B",
"g.	c #4C3F31",
"h.	c #202020",
"i.	c #3A3A37",
"j.	c #6C6461",
"k.	c #716968",
"l.	c #1F1F1A",
"m.	c #2E2B25",
"n.	c #3A352F",
"o.	c #423E38",
"p.	c #403B35",
"q.	c #413C36",
"r.	c #44403A",
"s.	c #423E37",
"t.	c #423E35",
"u.	c #403B33",
"v.	c #413C34",
"w.	c #423D35",
"x.	c #423D36",
"y.	c #413D34",
"z.	c #403C34",
"A.	c #403C33",
"B.	c #423F36",
"C.	c #433F36",
"D.	c #403D34",
"E.	c #403B34",
"F.	c #45403B",
"G.	c #47433D",
"H.	c #433F39",
"I.	c #433E39",
"J.	c #44403B",
"K.	c #47423B",
"L.	c #4B423D",
"M.	c #372E28",
"N.	c #4F4F51",
". + + + + + + + + + + + + + + + + + + + + + + + + + + + + + + + + + . ",
"@ @ @ @ @ @ @ @ @ @ @ @ @ @ @ @ @ @ @ @ @ @ @ @ @ @ @ @ @ @ @ @ @ @ # ",
"@ @ @ @ @ @ @ @ @ @ @ @ @ @ @ @ @ @ @ @ @ @ @ @ @ @ @ @ @ @ @ @ @ @ $ ",
"@ @ @ @ @ @ @ @ @ @ @ @ @ @ @ @ @ @ @ @ @ @ @ @ @ @ @ @ @ @ @ @ @ @ % ",
"@ @ @ & * = - ; > > > , ' ) ! ~ { ] ^ / ( _ : < [ } | 1 2 3 4 @ @ @ 5 ",
"@ @ @ 6 7 8 9 9 9 9 9 9 9 9 9 9 9 9 9 9 9 9 9 9 9 9 9 9 9 9 0 a @ @ b ",
"@ @ @ 6 c 8 9 9 9 9 9 9 9 9 9 9 9 9 9 9 9 9 9 9 9 9 9 9 9 9 d e f @ g ",
"@ @ @ 6 c 8 9 9 9 9 9 9 9 9 9 9 9 9 9 9 9 9 9 9 9 9 9 9 9 9 d e f @ h ",
"i @ @ 6 c 8 9 9 9 9 9 9 9 9 9 9 9 9 9 9 9 9 9 9 9 9 9 9 9 9 d e f @ j ",
"i @ @ 6 c 8 9 9 9 9 9 9 9 9 9 9 9 9 9 9 9 9 9 9 9 9 9 9 9 9 d e f @ k ",
"i @ @ 6 c 8 9 9 9 9 9 9 9 9 9 9 9 9 9 9 9 9 9 9 9 9 9 9 9 9 d e f @ l ",
"i @ @ 6 c 8 9 9 9 9 9 9 9 9 9 9 9 9 9 9 9 9 9 9 9 9 9 9 9 9 d e f @ m ",
"i @ @ 6 c 8 9 9 9 9 9 9 9 9 9 9 9 9 9 9 9 9 9 9 9 9 9 9 9 9 d e f @ n ",
"i @ @ 6 c 8 9 9 9 9 9 9 9 9 9 9 9 9 9 9 9 9 9 9 9 9 9 9 9 9 d e f @ o ",
"i @ @ 6 c 8 9 9 9 9 9 9 9 9 9 9 9 9 9 9 9 9 9 9 9 9 9 9 9 9 d e f @ p ",
"i @ @ 6 c 8 9 9 9 9 9 9 9 9 9 9 9 9 9 9 9 9 9 9 9 9 9 9 9 9 d e f @ q ",
"i @ @ 6 c 8 9 9 9 9 9 9 9 9 9 9 9 9 9 9 9 9 9 9 9 9 9 9 9 9 d e f @ r ",
"i @ @ 6 c s t t t t t t t t t t t t t t t t t t t t t t t t u v w @ x ",
"y @ @ 6 z A B C C C C D E F F F G G H I J K L L M N N L M O P Q w @ R ",
"y @ @ 6 z A S C T T T U V W X X X X Y Z `  .K ..+.L +.+.L @.P Q w @ #.",
"y @ @ 6 z A C C C $.T U W W %.X X F L L &.&.*.=.L L &.+.-.;.P Q w @ #.",
"y @ @ 6 z A >.,.,.Y '.).!.Y F ~.{.E ].M ^.@.@./.^.(._.:.(.<.P Q w @ #.",
"y @ @ 6 z A Y H [.Y Y >.[.}.F {.W E ^.|._.1.2.2._._.:.3.4.5.P Q w @ #.",
"y @ @ 6 z A 6.Y [.Y H 7.[.[.Y W W 8.W 9.0.-.-.K +.-.L  .a.+.P Q w @ #.",
"y @ @ 6 z A X ~.E W G W 7.Y F {.{.{.5.X 9.+.+. . . .+.+.a.J P Q w @ #.",
"y @ @ 6 z A b.b.{.{.{.E [.[.F ~.{.c.d.X W X +.+.e.a.+.+.` }.f.Q g.@ #.",
"y @ @ h.i.j.j.j.j.j.j.j.j.j.j.j.j.j.j.j.j.j.j.j.j.j.j.j.j.j.j.k.@ @ #.",
"y y @ @ l.m.n.o.p.q.r.s.t.u.v.w.x.y.z.A.B.C.D.E.F.G.H.I.J.K.L.M.@ #.#.",
". N.N.N.N.N.N.N.N.N.N.N.N.N.N.N.N.N.N.N.N.N.N.N.N.N.N.N.N.N.N.N.N.N.. "};
