/* XPM */
static const char * prpn_xpm[] = {
/* columns rows colors chars-per-pixel */
"32 32 85 1 ",
"  c #232323",
". c gray16",
"X c #363635",
"o c #393737",
"O c #3A3837",
"+ c #393739",
"@ c #3C3A3B",
"# c #403E3D",
"$ c #43413E",
"% c #3F3E40",
"& c #403F41",
"* c #434243",
"= c #484646",
"- c #4F4C45",
"; c #464548",
": c #4A4748",
"> c #464C49",
", c #4C4A4C",
"< c #514E45",
"1 c #504E4C",
"2 c #57574B",
"3 c #57584B",
"4 c #4F4E51",
"5 c #545355",
"6 c #57565A",
"7 c #58575A",
"8 c #565E5A",
"9 c #5B5B5D",
"0 c #59605C",
"q c #64665D",
"w c #67685E",
"e c #5E5D61",
"r c #605E62",
"t c #636265",
"y c #646B66",
"u c #666569",
"i c #68666A",
"p c #6B6A6E",
"a c #67706B",
"s c #6F6D72",
"d c #706F72",
"f c #737275",
"g c #737B75",
"h c #787C77",
"j c #767579",
"k c #7D7E81",
"l c #7F8083",
"z c #818385",
"x c #838C86",
"c c #8D948F",
"v c #8F9C95",
"b c #929795",
"n c #949B95",
"m c #969D9B",
"M c #989F9C",
"N c #98A09D",
"B c #99A09D",
"V c #98A59E",
"C c #9CAAA2",
"Z c #A4A5A4",
"A c #A5ADA5",
"S c #A7B4AA",
"D c #ACB1AF",
"F c #AFB5B2",
"G c #ADBAB2",
"H c #AFBFB6",
"J c #B0BFB7",
"K c #B0C0B7",
"L c #B2C0B8",
"P c #B2C1B8",
"I c #B8C8BF",
"U c #BCCCC3",
"Y c #BFD0C7",
"T c #C0D0C8",
"R c #C2D1C9",
"E c #C7D2CC",
"W c #C4D5CC",
"Q c #C4D6CC",
"! c #C7D8CF",
"~ c #C7D9CF",
"^ c #C6DACE",
"/ c #C7DACF",
"( c #CBD6D0",
") c #C8DAD0",
"_ c #D3E3DA",
/* pixels */
"))))))))))))))))))))()))))))))))",
")*******;&****&&****&&****&&;&;)",
")*,,;**%&@@@@++@@#+@@@O#@&#%%&&)",
")*574:*&#@@@+@@@++++Oooo@@@@+%*)",
"(&7re4:&&##@@OOO#@+oo#oo+@+++@*)",
"(&9rtr1:*%##@@@O#@###oo#+@@++%*)",
");7spir:;==$$$$$&#&###$##@+++@;)",
");9dddp92-====**===$##$-#X+++%*)",
")*ejsfsjfhhhhhhhhhhhhhhy<XXoo@*)",
")*ejjjkcJLLLLLLLLLLLKGnq<XXo+@*)",
"!;rjjkzU))))//////////Aw<OXo+%*)",
")&rkkkbY)YD)!/////))//Sw<OOo+%*)",
")*ekkkNYY0.aQnX*>>>5))Sw3@+++%*)",
")*ekkkNY!HbIQ/))))//))Sw3@@++@*)",
")*tkkkNY!)R)!)))))///)Sw3@O+@@*)",
")*tkkkNY!)))/))))))/!!Sw3@++@%*)",
")*rkkzMY/!F)Q/))))))))Sw3@O@@@*)",
");rkkzMR!8 eQvX*>>>5K)Sw3$O++@*)",
")*tkkzNR!YVUQ)))))//))Sw3O@++&*)",
")*tkkzNR!/Y)))))))//)/Sw3@OO@&*)",
")*tkkzCU!//)//))))))))Sw3@+++@&)",
")*tkzzMR!/F)//))))//))Sw3@+++&*)",
")*tkkzCY)g g/C40yyygL)Sw3X+++%*)",
")*rkjkbY)EZ)//!///))//Sy3++++&*)",
")*ejjjvY//_)))//))///)Sw3++++%*!",
")*esfsbY/!/)))!!)))//)Sq3@+++%*)",
")*esppjU!!!))!!!))!!)!mq*O@++%*)",
")*6utt6ymCCCCCCVVCVVCxe*&@@++&*)",
")*5ee5:;**;*=*;&*;;&*%*%%%&++%*/",
")*464;***&**&&&;&&&&%%%%%&&@+%*)",
")*;;;******;&&&&*&**%**%%%&*&**)",
")))))))))))))))))))))))))^)//)))"
};
