/* XPM */
static const char * red_small_unsel_xpm[] = {
"35 29 26 1",
" 	c None",
".	c #959599",
"+	c #000000",
"@	c #312E2B",
"#	c #626D6F",
"$	c #2D100F",
"%	c #3E1412",
"&	c #300809",
"*	c #7C1D22",
"=	c #5F1A1C",
"-	c #291209",
";	c #301713",
">	c #722026",
",	c #6C020C",
"'	c #8B2A33",
")	c #54241F",
"!	c #3D1A19",
"~	c #9E3F43",
"{	c #67010A",
"]	c #933735",
"^	c #5D0C10",
"/	c #620105",
"(	c #86313B",
"_	c #6C1219",
":	c #4C0604",
"<	c #505657",
".++++++++++++++++++++++++++++++++@.",
"@@+++++++++++++++++++++++++++++++@#",
"@++++$%%%%%%%%%%%%%%%%%%%%%%%+++++#",
"@++&**************************=-++#",
"++;>,,,,,,,,,,,,,,,,,,,,,,,,,,')++#",
"++!>,,,,,,,,,,,,,,,,,,,,,,,,,,'~++#",
"++!>,,,,,,,,,,,,,,,,,,,,,,,,,,'~++#",
"++!>,,,,,,,,,,,,,,,,,,,,,,,,,,'~++#",
"++!>,,,,,,,,,,,,,,,,,,,,,,,,,,'~++#",
"++!>,,,,,,,,,,,,,,,,,,,,,,,,,,'~++#",
"++!>,,,,,,,,,,,,,,,,,,,,,,,,,,'~++#",
"++!>,,,,,,,,,,,,,,,,,,,,,,,,,,'~++#",
"++!>,,,,,,,,,,,,,,,,,,,,,,,,,,'~++#",
"++!>,,,,,,,,,,,,,,,,,,,,,,,,,,'~++#",
"++!>,,,,,,,,,,,,,,,,,,,,,,,,,,'~++#",
"++!>,,,,,,,,,,,,,,,,,,,,,,,,,,'~++#",
"++!>,,,,,,,,,,,,,,,,,,,,,,,,,,'~++#",
"++!{{{{{{{{{{{{{{{{{{{{{{{{{{{']++#",
"++!^//////////////////////////(]++#",
"++!^//////////////////////////(]++#",
"++!^//////////////////////////(]++#",
"++!^//////////////////////////(]++#",
"++!^//////////////////////////(]++#",
"++!^//////////////////////////(]++#",
"++!^//////////////////////////(_++#",
"@++://////////////////////////(:++#",
"@+++:::::::::::::::::::::::::::+++#",
"@@++++++++++++++++++++++++++++++++#",
".<<<<<<<<<<<<<<<<<<<<<<<<<<<<<<<<<."};
