/* XPM */
static const char * unit_hex_s1_xpm[] = {
"85 16 77 1",
" 	c None",
".	c #C8DAD0",
"+	c #94A19A",
"@	c #000000",
"#	c #9BA9A2",
"$	c #BDCEC5",
"%	c #97A49D",
"&	c #B2C2B9",
"*	c #C1D2C8",
"=	c #A2B1A9",
"-	c #96A39C",
";	c #A2B0A9",
">	c #C1D2C9",
",	c #C2D3CA",
"'	c #A5B3AB",
")	c #BDCEC4",
"!	c #C1D3C9",
"~	c #A3B2AA",
"{	c #95A29B",
"]	c #0D0E0D",
"^	c #747E78",
"/	c #B0C0B7",
"(	c #3C413E",
"_	c #090A09",
":	c #060606",
"<	c #383D3A",
"[	c #AFBFB6",
"}	c #505854",
"|	c #8D9992",
"1	c #8C9992",
"2	c #515854",
"3	c #B9CAC0",
"4	c #B9C9C0",
"5	c #9DABA4",
"6	c #B6C7BE",
"7	c #C0D1C7",
"8	c #9FADA5",
"9	c #A0AEA6",
"0	c #B1C1B8",
"a	c #C6D8CE",
"b	c #9DABA3",
"c	c #9FADA6",
"d	c #BACAC1",
"e	c #85918A",
"f	c #A9B8B0",
"g	c #0A0B0A",
"h	c #2C302E",
"i	c #929F98",
"j	c #2E3230",
"k	c #C4D5CB",
"l	c #2F3431",
"m	c #121413",
"n	c #303532",
"o	c #C7D9CF",
"p	c #C5D7CD",
"q	c #030404",
"r	c #020202",
"s	c #9CAAA3",
"t	c #B9CAC1",
"u	c #C3D5CB",
"v	c #B7C7BE",
"w	c #88948D",
"x	c #C4D6CC",
"y	c #262927",
"z	c #191B1A",
"A	c #272A28",
"B	c #C0D1C8",
"C	c #A2B0A8",
"D	c #95A39B",
"E	c #C0D2C8",
"F	c #C2D3C9",
"G	c #A4B3AB",
"H	c #ACBBB3",
"I	c #A5B4AC",
"J	c #424845",
"K	c #4C534F",
"L	c #4D5450",
".....................................................................................",
".....................................................................................",
".....................................................................................",
".....................................................................................",
"..++.....++..................................++................@@....................",
"..++.....++.......................++.........++................@@....................",
"..++..............................++.........++................@@....................",
"..++++#$.++.++++%&...*=--;>.,'%+++++++...)#++++.!~-{=!.,'%++...@@@@]^./(_:<[.}@|1@2..",
"..++34+5.++.++67+-...8+34+8.9+0a..++.....b+34++.c+d)+9.9+0a....@@ef@g.h@i8@j.klmmnk..",
"..++aa+{.++.++o.++...++aa+{.{+p...++.....++aa++.{+++++.{+p.....@@p.@@.q@@@@r..s@@s...",
"..++t3+5.++.++..++...8+t3+8.c+&a..{+u....b+t3++.9+vo...c+&a....@@..@@.j@wx...!yzzA!..",
"..++++#$.++.++..++...BCDDCE.FG%++.H-++...)#++++.,I%+++.FG%++...@@..@@.&J]@@@.K@DD@L..",
".....................................................................................",
".....................................................................................",
".....................................................................................",
"....................................................................................."};
