/* XPM */
static const char * unit_dec_s1_xpm[] = {
"85 16 87 1",
" 	c None",
".	c #C8DAD0",
"+	c #94A19A",
"@	c #000000",
"#	c #9BA9A2",
"$	c #BDCEC5",
"%	c #97A49D",
"&	c #B2C2B9",
"*	c #C1D2C8",
"=	c #A2B1A9",
"-	c #96A39C",
";	c #A2B0A9",
">	c #C1D2C9",
",	c #C2D3CA",
"'	c #A5B3AB",
")	c #9FADA5",
"!	c #1E211F",
"~	c #B0C0B7",
"{	c #3C413E",
"]	c #090A09",
"^	c #060606",
"/	c #383D3A",
"(	c #AFBFB6",
"_	c #414744",
":	c #0C0D0D",
"<	c #C1D3C9",
"[	c #A3B2AA",
"}	c #95A29B",
"|	c #A9B8AF",
"1	c #B8C9C0",
"2	c #B8C9BF",
"3	c #A9B8B0",
"4	c #B9CAC0",
"5	c #B9C9C0",
"6	c #9DABA4",
"7	c #B6C7BE",
"8	c #C0D1C7",
"9	c #A0AEA6",
"0	c #B1C1B8",
"a	c #C6D8CE",
"b	c #242826",
"c	c #909D96",
"d	c #8E9B94",
"e	c #2C302E",
"f	c #929F98",
"g	c #2E3230",
"h	c #727C77",
"i	c #C3D4CB",
"j	c #9FADA6",
"k	c #BACAC1",
"l	c #BDCEC4",
"m	c #98A69F",
"n	c #A0AEA7",
"o	c #C7D9CF",
"p	c #C5D7CD",
"q	c #030303",
"r	c #C2D4CA",
"s	c #030404",
"t	c #020202",
"u	c #BCCDC4",
"v	c #B9CAC1",
"w	c #C3D5CB",
"x	c #919F97",
"y	c #88948D",
"z	c #C4D6CC",
"A	c #2D312F",
"B	c #747E78",
"C	c #C4D5CB",
"D	c #B7C7BE",
"E	c #9AA8A0",
"F	c #9EACA4",
"G	c #C0D1C8",
"H	c #A2B0A8",
"I	c #95A39B",
"J	c #C0D2C8",
"K	c #C2D3C9",
"L	c #A4B3AB",
"M	c #ACBBB3",
"N	c #1D201E",
"O	c #424845",
"P	c #0D0E0D",
"Q	c #404642",
"R	c #0B0C0C",
"S	c #A5B4AC",
"T	c #A7B6AE",
"U	c #BACBC2",
"V	c #A8B7AE",
".....................................................................................",
".....................................................................................",
".....................................................................................",
".....................................................................................",
"..++.....++..................................@@................++....................",
"..++.....++.......................++.........@@................++....................",
"..++..............................++.........@@................++....................",
"..++++#$.++.++++%&...*=--;>.,'%+++++++...)!@@@@.~{]^/(.&_:@@...++++%&.<[-}=<.|+12+3..",
"..++45+6.++.++78+-...)+45+).9+0a..++.....b@cd@@.e@f)@g.g@hi....++78+-.j+kl+9.a9mmna..",
"..++aa+}.++.++o.++...++aa+}.}+p...++.....q@ir@@.s@@@@t.s@8.....++o.++.}+++++..u++u...",
"..++v4+6.++.++..++...)+v4+).j+&a..}+w....b@xc@@.g@yz...A@BC....++..++.9+Do...a6EEFa..",
"..++++#$.++.++..++...GHIIHJ.KL%++.M-++...FN@@@@.&OP@@@.0QR@@...++..++.,S%+++.T+UU+V..",
".....................................................................................",
".....................................................................................",
".....................................................................................",
"....................................................................................."};
