/* XPM */
static const char * unit_oct_xpm[] = {
"85 16 54 1",
" 	c None",
".	c #FAFAFA",
"+	c #DEDEDE",
"@	c #000000",
"#	c #E2E2E2",
"$	c #F4F4F4",
"%	c #DFDFDF",
"&	c #EEEEEE",
"*	c #D8D8D8",
"=	c #464646",
"-	c #090909",
";	c #454545",
">	c #D9D9D9",
",	c #525252",
"'	c #0F0F0F",
")	c #F6F6F6",
"!	c #E6E6E6",
"~	c #E5E5E5",
"{	c #F7F7F7",
"]	c #E7E7E7",
"^	c #E9E9E9",
"/	c #F1F1F1",
"(	c #F2F2F2",
"_	c #E3E3E3",
":	c #F0F0F0",
"<	c #F5F5F5",
"[	c #353535",
"}	c #B4B4B4",
"|	c #B2B2B2",
"1	c #393939",
"2	c #8F8F8F",
"3	c #E4E4E4",
"4	c #F9F9F9",
"5	c #E0E0E0",
"6	c #030303",
"7	c #F3F3F3",
"8	c #040404",
"9	c #F8F8F8",
"0	c #343434",
"a	c #B6B6B6",
"b	c #383838",
"c	c #919191",
"d	c #E1E1E1",
"e	c #D6D6D6",
"f	c #444444",
"g	c #080808",
"h	c #434343",
"i	c #D7D7D7",
"j	c #DDDDDD",
"k	c #505050",
"l	c #0E0E0E",
"m	c #747474",
"n	c #0C0C0C",
"o	c #E8E8E8",
".....................................................................................",
".....................................................................................",
".....................................................................................",
".....................................................................................",
"..++.....++..................................++................++....................",
"..++.....++.......................@@.........++................++....................",
"..++..............................@@.........++................++....................",
"..++++#$.++.++++%&...*=--;>.%,'@@@@@@@...$#++++.)!%+~).{]%++...++++%&.)!%+~).^+//+^..",
"..++(/+_.++.++:<+%...[@}|@[.1@2$..@@....._+(/++.3+($+3.3+&4....++:<+%.3+($+3.435534..",
"..++44++.++.++4.++...6@$7@8.8@:...@@.....++44++.++++++.++9.....++4.++.++++++..7++7...",
"..++((+_.++.++..++...0@a}@0.b@c<..8@!...._+((++.3+/4...3+&4....++..++.3+/4...4_dd_4..",
"..++++#$.++.++..++...efgghi.jkl@@.mn@@...$#++++.)]%+++.)]%++...++..++.)]%+++.o+((+o..",
".....................................................................................",
".....................................................................................",
".....................................................................................",
"....................................................................................."};
