/* XPM */
static const char * white_large_sel_xpm[] = {
"45 29 61 1",
" 	c None",
".	c #B1AAAD",
"+	c #6F6862",
"@	c #604E45",
"#	c #75706D",
"$	c #A9A8A8",
"%	c #6F6463",
"&	c #000000",
"*	c #566771",
"=	c #472823",
"-	c #44494E",
";	c #8F9D9B",
">	c #656569",
",	c #322E2E",
"'	c #090402",
")	c #767978",
"!	c #E6E5E4",
"~	c #C0BDBA",
"{	c #B6B8B9",
"]	c #CBC7C6",
"^	c #DADDE1",
"/	c #F8E7DD",
"(	c #555B5F",
"_	c #898E90",
":	c #CACCCD",
"<	c #585C60",
"[	c #53585C",
"}	c #515A5C",
"|	c #505B5C",
"1	c #4B5456",
"2	c #495356",
"3	c #4A5158",
"4	c #4C5357",
"5	c #4C5458",
"6	c #4D5552",
"7	c #4D5551",
"8	c #818589",
"9	c #C8C4C3",
"0	c #505753",
"a	c #B4B5B5",
"b	c #BFBCBB",
"c	c #DBDDE3",
"d	c #CFB1A1",
"e	c #565A56",
"f	c #585D59",
"g	c #565A59",
"h	c #585C61",
"i	c #57575D",
"j	c #4C4B4F",
"k	c #F2EDEE",
"l	c #6B6865",
"m	c #C3BFBE",
"n	c #E2D4CB",
"o	c #988171",
"p	c #4C4842",
"q	c #767267",
"r	c #B9A89E",
"s	c #BAAEA8",
"t	c #9C9795",
"u	c #2C333B",
"v	c #879196",
".+@@@@@@@@@@@@@@@@@@@@@@@@@@@@@@@@@@@@@@@@@#$",
"%&&&&&&&&&&&&&&&&&&&&&&&&&&&&&&&&&&&&&&&&&&&*",
"=&&&&&&&&&&&&&&&&&&&&&&&&&&&&&&&&&&&&&&&&&&&*",
"=&&&&&&&&&&&&&&&&&&&&&&&&&&&&&&&&&&&&&&&&&&&*",
"=&&--;;;;;;;;;;;;;;;;;;;;;;;;;;;;;;;;;;>,'&&*",
"=&--)!!!!!!!!!!!!!!!!!!!!!!!!!!!!!!!!!!!~>&&*",
"=&-){]]]]]]]]]]]]]]]]]]]]]]]]]]]]]]]]]]]^/&&*",
"=&(_:]]]]]]]]]]]]]]]]]]]]]]]]]]]]]]]]]]]^/&&*",
"=&<_:]]]]]]]]]]]]]]]]]]]]]]]]]]]]]]]]]]]^/&&*",
"=&[_:]]]]]]]]]]]]]]]]]]]]]]]]]]]]]]]]]]]^/&&*",
"=&}_:]]]]]]]]]]]]]]]]]]]]]]]]]]]]]]]]]]]^/&&*",
"=&|_:]]]]]]]]]]]]]]]]]]]]]]]]]]]]]]]]]]]^/&&*",
"=&1_:]]]]]]]]]]]]]]]]]]]]]]]]]]]]]]]]]]]^/&&*",
"=&2_:]]]]]]]]]]]]]]]]]]]]]]]]]]]]]]]]]]]^/&&*",
"=&3_:]]]]]]]]]]]]]]]]]]]]]]]]]]]]]]]]]]]^/&&*",
"=&4_:]]]]]]]]]]]]]]]]]]]]]]]]]]]]]]]]]]]^/&&*",
"=&5_:]]]]]]]]]]]]]]]]]]]]]]]]]]]]]]]]]]]^/&&*",
"=&6_:]]]]]]]]]]]]]]]]]]]]]]]]]]]]]]]]]]]^/&&*",
"=&78:99999999999999999999999999999999999^/&&*",
"=&08abbbbbbbbbbbbbbbbbbbbbbbbbbbbbbbbbbbcd&&*",
"=&e8abbbbbbbbbbbbbbbbbbbbbbbbbbbbbbbbbbbcd&&*",
"=&f8abbbbbbbbbbbbbbbbbbbbbbbbbbbbbbbbbbbcd&&*",
"=&g8abbbbbbbbbbbbbbbbbbbbbbbbbbbbbbbbbbbcd&&*",
"=&h8abbbbbbbbbbbbbbbbbbbbbbbbbbbbbbbbbbbcd&&*",
"=&i8abbbbbbbbbbbbbbbbbbbbbbbbbbbbbbbbbbbcd&&*",
"=&j8abbbbbbbbbbbbbbbbbbbbbbbbbbbbbbbbbbbkd&&*",
"=&&lammmmmmmmmmmmmmmmmmmmmmmmmmmmmmmmmmnno&&*",
"=&&pqrrrrrrrrrrrrrrrrrrrrrrrrrrrrrrrrrrso&&&*",
"tuuuuuuuuuuuuuuuuuuuuuuuuuuuuuuuuuuuuuuuuuuuv"};
