/* XPM */
static const char * exec_run_xpm[] = {
"16 16 3 1",
" 	c None",
".	c #FAFAFA",
"+	c #000000",
"................",
"................",
".....++++++.....",
"....++++++++....",
"...+++....+++...",
"..+++......+++..",
"..++........++..",
"..++........++..",
"..++........++..",
"..++........++..",
"..+++......+++..",
"...+++....+++...",
"....++++++++....",
".....++++++.....",
"................",
"................"};
