/* XPM */
static const char * prpn_xpm[] = {
"32 32 300 2",
"  	c #000000",
". 	c #7D7D7D",
"+ 	c #818181",
"@ 	c #B6B5B6",
"# 	c #F0F0F0",
"$ 	c #FFFFFF",
"% 	c #9F9F9F",
"& 	c #A2A2A2",
"* 	c #A4A4A4",
"= 	c #A6A6A6",
"- 	c #A8A7A7",
"; 	c #A9A9A8",
"> 	c #A9A9A9",
", 	c #A9A8A9",
"' 	c #A8A8A7",
") 	c #A5A6A6",
"! 	c #A2A3A2",
"~ 	c #9F9FA0",
"{ 	c #9C9C9C",
"] 	c #979898",
"^ 	c #949494",
"/ 	c #919090",
"( 	c #8C8B8C",
"_ 	c #868687",
": 	c #818182",
"< 	c #AFAFAF",
"[ 	c #F3F3F3",
"} 	c #EA9494",
"| 	c #E02222",
"1 	c #DB0000",
"2 	c #A5A5A6",
"3 	c #ABABAB",
"4 	c #ADAEAE",
"5 	c #AFAFB0",
"6 	c #B0B0B1",
"7 	c #B1B1B1",
"8 	c #B1B0B1",
"9 	c #B0B0B0",
"0 	c #AEAEAE",
"a 	c #A9A8A8",
"b 	c #A5A5A5",
"c 	c #A3A3A3",
"d 	c #9F9E9F",
"e 	c #9A9A9A",
"f 	c #969696",
"g 	c #929191",
"h 	c #8C8C8D",
"i 	c #A7A8A8",
"j 	c #F5F5F5",
"k 	c #ECA3A3",
"l 	c #DE1A1A",
"m 	c #FADCDC",
"n 	c #B6B6B6",
"o 	c #B7B7B7",
"p 	c #B8B7B8",
"q 	c #C1C1C0",
"r 	c #EBEBEB",
"s 	c #FEFEFE",
"t 	c #D8D8D9",
"u 	c #A1A1A1",
"v 	c #9B9C9C",
"w 	c #969796",
"x 	c #929292",
"y 	c #3A3A3A",
"z 	c #EFB2B2",
"A 	c #DD1616",
"B 	c #F1CBCB",
"C 	c #BEBEBE",
"D 	c #BFBFBF",
"E 	c #C0BFC0",
"F 	c #F7F7F7",
"G 	c #BBDDBB",
"H 	c #59B359",
"I 	c #1A961A",
"J 	c #038B03",
"K 	c #0B8F0B",
"L 	c #2B9E2B",
"M 	c #72BE72",
"N 	c #ECF6EC",
"O 	c #F6F6F6",
"P 	c #979796",
"Q 	c #E8E8E8",
"R 	c #EFBDBE",
"S 	c #DD1515",
"T 	c #F0C0C0",
"U 	c #C5C5C5",
"V 	c #C7C7C7",
"W 	c #C7C8C7",
"X 	c #F8F8F8",
"Y 	c #3DA53D",
"Z 	c #A6D6A6",
"` 	c #E5F3E5",
" .	c #FBFDFB",
"..	c #70BD70",
"+.	c #008A00",
"@.	c #3AA53A",
"#.	c #DE1717",
"$.	c #F5BABA",
"%.	c #CCCCCC",
"&.	c #CECECE",
"*.	c #CECFCE",
"=.	c #F9F9F9",
"-.	c #D8D9D9",
";.	c #C7C8C8",
">.	c #E7E7E7",
",.	c #F6FBF6",
"'.	c #098E09",
").	c #CAC9CA",
"!.	c #CECECD",
"~.	c #D1D1D1",
"{.	c #D4D4D3",
"].	c #D5D5D5",
"^.	c #D6D6D6",
"/.	c #D7D6D6",
"(.	c #D6D5D5",
"_.	c #FEFFFE",
":.	c #E7F4E7",
"<.	c #75C075",
"[.	c #5DB55D",
"}.	c #DADADA",
"|.	c #DCDCDC",
"1.	c #DDDDDD",
"2.	c #269B26",
"3.	c #EBF6EB",
"4.	c #EEEEED",
"5.	c #A5A4A5",
"6.	c #ACACAC",
"7.	c #B3B3B3",
"8.	c #E1E1E2",
"9.	c #E4E4E4",
"0.	c #E4E4E5",
"a.	c #E5E5E5",
"b.	c #E4E3E4",
"c.	c #FDFEFD",
"d.	c #D9EED9",
"e.	c #4DAD4D",
"f.	c #55B155",
"g.	c #A2A1A2",
"h.	c #A8A8A8",
"i.	c #B0AFAF",
"j.	c #E8E9E9",
"k.	c #EBECEC",
"l.	c #ECEBEB",
"m.	c #E8E8E9",
"n.	c #E4E5E5",
"o.	c #E0E0E0",
"p.	c #EAF5EA",
"q.	c #0C900C",
"r.	c #ABAAAA",
"s.	c #B2B2B2",
"t.	c #B8B8B9",
"u.	c #EEEFEE",
"v.	c #F2F2F2",
"w.	c #F3F3F4",
"x.	c #FEFEFD",
"y.	c #FDFDFD",
"z.	c #E5E6E6",
"A.	c #149314",
"B.	c #ADADAD",
"C.	c #B4B5B4",
"D.	c #BBBBBB",
"E.	c #C3C2C2",
"F.	c #C9C9C9",
"G.	c #D0D1D0",
"H.	c #D8D8D7",
"I.	c #DDDDDE",
"J.	c #E5E5E4",
"K.	c #FBFBFC",
"L.	c #FFFEFE",
"M.	c #3FA73F",
"N.	c #A9D8A9",
"O.	c #FCFEFC",
"P.	c #DBEEDB",
"Q.	c #81C581",
"R.	c #0D0D0D",
"S.	c #E1E1E1",
"T.	c #FCFCFC",
"U.	c #E3E3E2",
"V.	c #E1E0E1",
"W.	c #EEEEEE",
"X.	c #FAFBFB",
"Y.	c #BBE0BB",
"Z.	c #4EAE4E",
"`.	c #129212",
" +	c #139313",
".+	c #42A842",
"++	c #A5D6A5",
"@+	c #F8F8FB",
"#+	c #5555DE",
"$+	c #0000CE",
"%+	c #0B0BD0",
"&+	c #C9C9F5",
"*+	c #EDEDEC",
"=+	c #F1F1F2",
"-+	c #FEFEFF",
";+	c #FAFAFA",
">+	c #CDCCCC",
",+	c #A6A6EE",
"'+	c #2626D5",
")+	c #AAAAEF",
"!+	c #F3F3F2",
"~+	c #FAFBFA",
"{+	c #D6D5D6",
"]+	c #CDCDCD",
"^+	c #BFBEBE",
"/+	c #DCDCDB",
"(+	c #CDCDCE",
"_+	c #C6C7C7",
":+	c #BEBFBF",
"<+	c #B6B7B7",
"[+	c #A7A8A7",
"}+	c #E6E6E6",
"|+	c #808080",
"1+	c #2A2A2A",
"2+	c #DBDBDB",
"3+	c #D4D5D5",
"4+	c #C6C5C6",
"5+	c #D8D8D8",
"6+	c #6D6DE3",
"7+	c #D9D9D9",
"8+	c #D2D2D2",
"9+	c #CACBCA",
"0+	c #C4C4C4",
"a+	c #BCBCBD",
"b+	c #D4D4D4",
"c+	c #9999EB",
"d+	c #BFBFF3",
"e+	c #F9F9FA",
"f+	c #7F7F7F",
"g+	c #D7D6D7",
"h+	c #D0CFD0",
"i+	c #C8C8C8",
"j+	c #D0D0D0",
"k+	c #9393EA",
"l+	c #9797EB",
"m+	c #E3E3E3",
"n+	c #F1F2F1",
"o+	c #FDFCFD",
"p+	c #D3D3D3",
"q+	c #C6C7C6",
"r+	c #8C8CE9",
"s+	c #B1B1F0",
"t+	c #E2E3E3",
"u+	c #D5D4D5",
"v+	c #E9E9E9",
"w+	c #EAE9EA",
"x+	c #E7E7E6",
"y+	c #CFCFCE",
"z+	c #C3C3C3",
"A+	c #8787E8",
"B+	c #B8B8F1",
"C+	c #D7D8D7",
"D+	c #CACACA",
"E+	c #D0CFCF",
"F+	c #E2E2E2",
"G+	c #E2E2E1",
"H+	c #DFE0DF",
"I+	c #C9CACA",
"J+	c #8282E7",
"K+	c #BDBDF2",
"L+	c #BABABA",
"M+	c #D4D3D3",
"N+	c #D4D4D5",
"O+	c #BFC0BF",
"P+	c #B6B5B5",
"Q+	c #AFB0B0",
"R+	c #A9A9AA",
"S+	c #CBCCCB",
"T+	c #CCCCCB",
"U+	c #B9B9B9",
"V+	c #B5B6B5",
"W+	c #8F8F8F",
"X+	c #9B9A9A",
"Y+	c #A0A0A1",
"Z+	c #A5A5A4",
"`+	c #AAAAAA",
" @	c #AFB0AF",
".@	c #B4B4B4",
"+@	c #BFBFBE",
"@@	c #C2C2C2",
"#@	c #C5C4C4",
"$@	c #8A8A8A",
"%@	c #919091",
"&@	c #959595",
"*@	c #9B9A9B",
"=@	c #A0A0A0",
"-@	c #A4A5A4",
";@	c #AEADAD",
">@	c #B2B1B1",
",@	c #B7B7B8",
"'@	c #BCBCBC",
")@	c #BDBDBD",
"!@	c #BDBEBE",
"~@	c #858585",
"{@	c #8B8B8B",
"]@	c #909191",
"^@	c #A4A3A3",
"/@	c #A6A7A7",
"(@	c #ABAAAB",
"_@	c #B5B5B5",
"                                                                ",
"                                                                ",
"    . + @ # $ $ $ $ % & * = - ; > > , ' ) * ! ~ { ] ^ / ( _     ",
"    : < [ } | 1 1 $ 2 ; 3 4 5 6 7 7 8 9 0 3 a b c d e f g h     ",
"    i j k l m 1 1 $ $ $ $ $ n o p q r $ $ $ $ $ s t u v w x     ",
"  y j z A B $ 1 1 $ $ 1 1 $ C D E F G H I J K L M N O u { P     ",
"  Q R S T F $ 1 1 $ $ 1 1 $ U V W X Y Z `  .` ..+.@.$ $ $ $ $   ",
"  $ #.$.$ $ $ 1 1 $ $ $ $ $ %.&.*.=.=.X -.;.>.,.+.'.$ $ +.+.$   ",
"  $ 1 1 1 1 1 1 1 1 $ ).!.~.{.].^./.(.$ $ _.:.<.+.[.$ $ +.+.$   ",
"  $ $ $ $ $ $ 1 1 $ $ $ $ $ }.|.1.1.|.$ +.+.+.+.2.3.4.$ +.+.$   ",
"    % 5.6.7.$ 1 1 $ $ 1 1 $ 8.9.0.a.b.$ $ c.d.e.+.f.$ $ $ $ $   ",
"    g.h.i.n $ 1 1 $ $ 1 1 $ j.r k.l.r m.n.o.F p.+.q.$ $ $ $ $   ",
"    * r.s.t.$ $ $ $ $ $ $ $ u.v.w.x.y.y.# z.X 3.+.A.$ $ +.+.$   ",
"    b B.C.D.E.F.G.H.I.J.r # j =.K.L.M.N.:.O.P.e.+.Q.$ $ +.+.$   ",
"  R.S.$ $ $ $ $ T.U.V.Q W.j X.$ $ $ Y.Z.`.J  +.+++$ 9.$ +.+.$   ",
"  F @+#+$+$+$+%+&+$ *+r =+X -+$ $ $ $ $ $ $ $ $ ;+o.>+$ $ $ $   ",
"  F $+,+$ $ $ '+$+)+$ r !+~+$ $ $ $ $ $ ;+[ r 9.|.{+]+V ^+o     ",
"  F T.y.~.^+j $ $+$+$ $ $ $ $ $ $ $ $ $ $ $ $ $ /+].(+_+:+<+    ",
"    [+< n C }+$ $+$+$ $ $+$+$ $ $ $ ].|+1+    $ 2+3+%.4+C n     ",
"    = 0 n 5+$ 6+$+$+$ $ $+$+$ y.$ $           $ 7+8+9+0+a+n     ",
"    b 6.b+$ c+$+$+d+$ $ $+$+$ F e+$ 1+f+b+    $ g+h+i+$ $ $ $   ",
"    * j+$ k+$+$+l+$ m+$ $ $ $ # n+y.o+T.$     $ p+%.q+$     $   ",
"    ]+$ r+$+$+s+$ t+u+$ $ $ $ v+r r w+x+$     $ y+i+z+$     $   ",
"  . $ A+$+$+B+$ C+D+E+$ $+$+$ F+m+m+G+H+$     $ I+0+C $     $   ",
"  $ J+$+$+K+$ $ $ $ $ $ $+$+$ }.2+2+}.7+$     $ U E L+$ $ $ $   ",
"  $ $+$+$+$+$+$+$+$+$ $ $+$+$ M+N+N+p+8+$     $ O+L+P+Q+R+*     ",
"  $ $ $ $ $ $ $ $ $ $ $ $ $ $ S+%.]+T+D+$     $ U+V+9 $ $ $ $   ",
"    W+^ X+Y+Z+`+ @.@o D.+@@@z+#@U $ $ $ $     $ $ $ $ $     $   ",
"    $@%@&@*@=@-@> ;@>@P+,@L+'@)@!@$                 $ $     $   ",
"    ~@{@]@&@e % ^@/@(@0 7 7._@n n $                 $ $     $   ",
"                                  $ $ $ $ $ $ $ $ $ $ $ $ $ $   ",
"                                                                "};
