/* XPM */
static const char * shiftuns_xpm[] = {
"32 16 15 1",
" 	c None",
".	c #E8E8E8",
"+	c #DBDBDB",
"@	c #D0D0D0",
"#	c #D5D5D5",
"$	c #E0E0E0",
"%	c #DCDCDC",
"&	c #D7D7D7",
"*	c #D6D6D6",
"=	c #DEDEDE",
"-	c #E2E2E2",
";	c #DDDDDD",
">	c #D8D8D8",
",	c #DADADA",
"'	c #D4D4D4",
"................................",
"................................",
"................................",
"................................",
".....................+@@@#+$....",
"....................%&@@@@#+....",
"........................@@@*....",
".......................@@@@@....",
"......................=@@.@@....",
"....................-;@&=.@@....",
"...+*@@@@@@@@@@@@@@@@@*%..>%....",
"...,*@@@@@@@@@@@@@@@'>=...+.....",
"................................",
"................................",
"................................",
"................................"};
