/* XPM */
static const char * shiftuns_xpm[] = {
"32 16 16 1",
" 	c None",
".	c #FAFAFA",
"+	c #EBEBEB",
"@	c #DEDEDE",
"#	c #E3E3E3",
"$	c #F1F1F1",
"%	c #ECECEC",
"&	c #E6E6E6",
"*	c #E4E4E4",
"=	c #E5E5E5",
"-	c #EFEFEF",
";	c #F3F3F3",
">	c #EDEDED",
",	c #EEEEEE",
"'	c #EAEAEA",
")	c #E7E7E7",
"................................",
"................................",
"................................",
"................................",
".....................+@@@#+$....",
"....................%&@@@@*+....",
"........................@@@=....",
".......................@@@@@....",
"......................-@@.@@....",
"....................;>@&,.@@....",
"...'=@@@@@@@@@@@@@@@@@=%..)%....",
"...'=@@@@@@@@@@@@@@@#),...'.....",
"................................",
"................................",
"................................",
"................................"};
