/* XPM */
static const char * shiftsel_xpm[] = {
"32 16 28 1",
" 	c None",
".	c #FAFAFA",
"+	c #FC7878",
"@	c #FF0000",
"#	c #FD3434",
"$	c #FC7474",
"%	c #FBADAD",
"&	c #FC8282",
"*	c #FD4A4A",
"=	c #FD3636",
"-	c #FC7676",
";	c #FD3E3E",
">	c #FB9898",
",	c #FBC1C1",
"'	c #FC8C8C",
")	c #FD4B4B",
"!	c #FB9696",
"~	c #FC7272",
"{	c #FD4646",
"]	c #FD4040",
"^	c #FC8080",
"/	c #FD5757",
"(	c #FC8181",
"_	c #FC7171",
":	c #FD4242",
"<	c #FD3333",
"[	c #FD5454",
"}	c #FC9696",
"................................",
"................................",
"................................",
"................................",
".....................+@@@#$%....",
"....................&*@@@@=-....",
"........................@@@;....",
".......................@@@@@....",
"......................>@@.@@....",
"....................,'@)!.@@....",
"...~{@@@@@@@@@@@@@@@@@]^../(....",
"..._:@@@@@@@@@@@@@@@<[}...~.....",
"................................",
"................................",
"................................",
"................................"};
