/* XPM */
static const char * unit_oct_xpm[] = {
"85 16 50 1",
" 	c None",
".	c #E8E8E8",
"+	c #D0D0D0",
"@	c #000000",
"#	c #D3D3D3",
"$	c #E3E3E3",
"%	c #D1D1D1",
"&	c #DDDDDD",
"*	c #C9C9C9",
"=	c #414141",
"-	c #090909",
";	c #404040",
">	c #CFCFCF",
",	c #4C4C4C",
"'	c #0E0E0E",
")	c #E5E5E5",
"!	c #D7D7D7",
"~	c #D6D6D6",
"{	c #D9D9D9",
"]	c #E0E0E0",
"^	c #E1E1E1",
"/	c #D4D4D4",
"(	c #E4E4E4",
"_	c #323232",
":	c #A7A7A7",
"<	c #A5A5A5",
"[	c #353535",
"}	c #848484",
"|	c #E2E2E2",
"1	c #D5D5D5",
"2	c #E7E7E7",
"3	c #D2D2D2",
"4	c #030303",
"5	c #040404",
"6	c #DEDEDE",
"7	c #313131",
"8	c #A9A9A9",
"9	c #343434",
"0	c #868686",
"a	c #C7C7C7",
"b	c #3F3F3F",
"c	c #080808",
"d	c #3E3E3E",
"e	c #C8C8C8",
"f	c #CDCDCD",
"g	c #4A4A4A",
"h	c #0D0D0D",
"i	c #6C6C6C",
"j	c #0B0B0B",
"k	c #D8D8D8",
".....................................................................................",
".....................................................................................",
".....................................................................................",
".....................................................................................",
"..++.....++..................................++................++....................",
"..++.....++.......................@@.........++................++....................",
"..++..............................@@.........++................++....................",
"..++++#$.++.++++%&...*=--;*.>,'@@@@@@@...$#++++.)!%+~).)!%++...++++%&.)!%+~).{+]]+{..",
"..++^^+/.++.++](+%..._@:<@_.[@}|..@@...../+^^++.1+^$+1.1+&2....++](+%.1+^$+1.213312..",
"..++22++.++.++2.++...4@|^@5.5@6...@@.....++22++.++++++.++2.....++2.++.++++++..|++|...",
"..++^^+/.++.++..++...7@8:@7.9@0$..5@1..../+^^++.1+]2...1+&2....++..++.1+]2...2/##/2..",
"..++++#$.++.++..++...abccde.fgh@@.ij@@...$#++++.)k%+++.)!%++...++..++.)k%+++.{+^^+{..",
".....................................................................................",
".....................................................................................",
".....................................................................................",
"....................................................................................."};
