/* XPM */
static const char * unit_dec_xpm[] = {
"85 16 57 1",
" 	c None",
".	c #E8E8E8",
"+	c #D0D0D0",
"@	c #000000",
"#	c #D3D3D3",
"$	c #E3E3E3",
"%	c #D1D1D1",
"&	c #DDDDDD",
"*	c #E4E4E4",
"=	c #D6D6D6",
"-	c #E5E5E5",
";	c #D7D7D7",
">	c #B8B8B8",
",	c #232323",
"'	c #CCCCCC",
")	c #464646",
"!	c #0A0A0A",
"~	c #070707",
"{	c #414141",
"]	c #CBCBCB",
"^	c #CFCFCF",
"/	c #4C4C4C",
"(	c #0E0E0E",
"_	c #D9D9D9",
":	c #E0E0E0",
"<	c #E1E1E1",
"[	c #D4D4D4",
"}	c #D5D5D5",
"|	c #E7E7E7",
"1	c #2A2A2A",
"2	c #A7A7A7",
"3	c #A5A5A5",
"4	c #333333",
"5	c #AAAAAA",
"6	c #353535",
"7	c #848484",
"8	c #E2E2E2",
"9	c #D2D2D2",
"0	c #030303",
"a	c #040404",
"b	c #020202",
"c	c #DEDEDE",
"d	c #E6E6E6",
"e	c #A9A9A9",
"f	c #9E9E9E",
"g	c #343434",
"h	c #868686",
"i	c #DBDBDB",
"j	c #B7B7B7",
"k	c #222222",
"l	c #CECECE",
"m	c #4D4D4D",
"n	c #0F0F0F",
"o	c #CDCDCD",
"p	c #4A4A4A",
"q	c #0D0D0D",
"r	c #D8D8D8",
".....................................................................................",
".....................................................................................",
".....................................................................................",
".....................................................................................",
"..++.....++..................................@@................++....................",
"..++.....++.......................++.........@@................++....................",
"..++..............................++.........@@................++....................",
"..++++#$.++.++++%&...*=++=*.-;%+++++++...>,@@@@.')!~{].^/(@@...++++%&.-;%+=-._+::+_..",
"..++<<+[.++.++:*+%...}+<<+}.}+&|..++.....1@23@@.4@5>@6.6@78....++:*+%.}+<$+}.|}99}|..",
"..++||++.++.++|.++...++||++.++|...++.....0@8<@@.a@@@@b.a@c.....++|.++.++++++..8++8...",
"..++<<+[.++.++..++...}+<<+}.}+&|..++d....1@e2@@.6@f*...g@h$....++..++.}+:|...|[##[|..",
"..++++#$.++.++..++...*=++=*.-;%++.i%++...jk@@@@.lmn@@@.opq@@...++..++.-r%+++._+<<+_..",
".....................................................................................",
".....................................................................................",
".....................................................................................",
"....................................................................................."};
