/* XPM */
static const char * unit_bin_xpm[] = {
"85 16 37 1",
" 	c None",
".	c #E8E8E8",
"+	c #000000",
"@	c #D0D0D0",
"#	c #232323",
"$	c #BABABA",
"%	c #0F0F0F",
"&	c #868686",
"*	c #E4E4E4",
"=	c #D6D6D6",
"-	c #E5E5E5",
";	c #D7D7D7",
">	c #D1D1D1",
",	c #E3E3E3",
"'	c #D3D3D3",
")	c #DDDDDD",
"!	c #D9D9D9",
"~	c #E0E0E0",
"{	c #A7A7A7",
"]	c #A5A5A5",
"^	c #2C2C2C",
"/	c #9A9A9A",
"(	c #C4C4C4",
"_	c #0B0B0B",
":	c #D5D5D5",
"<	c #E1E1E1",
"[	c #E7E7E7",
"}	c #D4D4D4",
"|	c #D2D2D2",
"1	c #E2E2E2",
"2	c #040404",
"3	c #A9A9A9",
"4	c #2B2B2B",
"5	c #E6E6E6",
"6	c #222222",
"7	c #DBDBDB",
"8	c #D8D8D8",
".....................................................................................",
".....................................................................................",
".....................................................................................",
".....................................................................................",
"..++.....++..................................@@................@@....................",
"..++.....++.......................@@.........@@................@@....................",
"..++..............................@@.........@@................@@....................",
"..++++#$.++.++++%&...*=@@=*.-;>@@@@@@@...,'@@@@.-;>@=-.-;>@@...@@@@>).-;>@=-.!@~~@!..",
"..++{]+^.++.++/(+_...:@<<@:.:@)[..@@.....}@<<@@.:@<,@:.:@)[....@@~*@>.:@<,@:.[:||:[..",
"..++1<+2.++.++-.++...@@[[@@.@@[...@@.....@@[[@@.@@@@@@.@@[.....@@[.@@.@@@@@@..1@@1...",
"..++3{+4.++.++..++...:@<<@:.:@)[..@@5....}@<<@@.:@~[...:@)[....@@..@@.:@~[...[}''}[..",
"..++++6$.++.++..++...*=@@=*.-;>@@.7>@@...,'@@@@.-8>@@@.-;>@@...@@..@@.-8>@@@.!@<<@!..",
".....................................................................................",
".....................................................................................",
".....................................................................................",
"....................................................................................."};
