/* XPM */
static const char * unit_oct_xpm[] = {
"85 16 62 1",
" 	c None",
".	c #F4F4FA",
"+	c #DEDEDE",
"@	c #000000",
"#	c #E1E1E2",
"$	c #EFEFF4",
"%	c #DFDFDF",
"&	c #EAEAEE",
"*	c #D3D3D8",
"=	c #444446",
"-	c #090909",
";	c #434345",
">	c #D4D4D9",
",	c #DADADF",
"'	c #505052",
")	c #0F0F0F",
"!	c #F1F1F6",
"~	c #E4E4E6",
"{	c #E4E4E5",
"]	c #F1F1F7",
"^	c #E5E5E7",
"/	c #E6E6E9",
"(	c #EDEDF1",
"_	c #EDEDF2",
":	c #E2E2E3",
"<	c #ECECF0",
"[	c #F0F0F5",
"}	c #343435",
"|	c #B0B0B4",
"1	c #AEAEB2",
"2	c #383839",
"3	c #8B8B8F",
"4	c #EEEEF4",
"5	c #E2E2E4",
"6	c #EEEEF2",
"7	c #E3E3E4",
"8	c #F3F3F9",
"9	c #E0E0E0",
"0	c #030303",
"a	c #EDEDF3",
"b	c #040404",
"c	c #EAEAF0",
"d	c #F3F3F8",
"e	c #EFEFF3",
"f	c #333334",
"g	c #B1B1B6",
"h	c #373738",
"i	c #8D8D91",
"j	c #EFEFF5",
"k	c #E0E0E6",
"l	c #E0E0E1",
"m	c #D1D1D6",
"n	c #424244",
"o	c #080808",
"p	c #424243",
"q	c #D2D2D7",
"r	c #D8D8DD",
"s	c #4E4E50",
"t	c #0E0E0E",
"u	c #717174",
"v	c #0C0C0C",
"w	c #E6E6E8",
".....................................................................................",
".....................................................................................",
".....................................................................................",
".....................................................................................",
"..++.....++..................................++................++....................",
"..++.....++.......................@@.........++................++....................",
"..++..............................@@.........++................++....................",
"..++++#$.++.++++%&...*=--;>.,')@@@@@@@...$#++++.!~%+{!.]^%++...++++%&.!~%+{!./+((+/..",
"..++_(+:.++.++<[+%...}@|1@}.2@34..@@.....:+_(++.5+6$+7.7+&8....++<[+%.5+6$+7.879978..",
"..++88++.++.++8.++...0@4a@b.b@c...@@.....++88++.++++++.++d.....++8.++.++++++..e++e...",
"..++6_+:.++.++..++...f@g|@f.h@ij..b@k....:+6_++.7+(8...7+&8....++..++.7+(8...8:ll:8..",
"..++++#$.++.++..++...mnoopq.rst@@.uv@@...$#++++.!^%+++.!^%++...++..++.!^%+++.w+66+w..",
".....................................................................................",
".....................................................................................",
".....................................................................................",
"....................................................................................."};
