/* XPM */
static const char * unit_hex_xpm[] = {
"85 16 64 1",
" 	c None",
".	c #F4F4FA",
"+	c #DEDEDE",
"@	c #000000",
"#	c #E1E1E2",
"$	c #EFEFF4",
"%	c #DFDFDF",
"&	c #EAEAEE",
"*	c #F1F1F6",
"=	c #E4E4E5",
"-	c #DEDEDF",
";	c #F1F1F7",
">	c #E5E5E7",
",	c #E4E4E6",
"'	c #101010",
")	c #8D8D91",
"!	c #D7D7DC",
"~	c #49494B",
"{	c #0B0B0B",
"]	c #070707",
"^	c #444446",
"/	c #D6D6DB",
"(	c #626264",
"_	c #ACACB0",
":	c #ABABAF",
"<	c #636365",
"[	c #EDEDF2",
"}	c #EDEDF1",
"|	c #E2E2E3",
"1	c #ECECF0",
"2	c #F0F0F5",
"3	c #E2E2E4",
"4	c #E3E3E4",
"5	c #F3F3F9",
"6	c #EEEEF2",
"7	c #A2A2A6",
"8	c #CECED3",
"9	c #0C0C0C",
"0	c #363637",
"a	c #B2B2B7",
"b	c #C2C2C7",
"c	c #383839",
"d	c #EFEFF5",
"e	c #3A3A3B",
"f	c #161617",
"g	c #3B3B3C",
"h	c #F3F3F8",
"i	c #040404",
"j	c #020202",
"k	c #BFBFC4",
"l	c #F2F2F7",
"m	c #A6A6AA",
"n	c #F0F0F6",
"o	c #ECECF2",
"p	c #2E2E30",
"q	c #1E1E1F",
"r	c #2F2F31",
"s	c #E3E3E5",
"t	c #E8E8EB",
"u	c #D9D9DE",
"v	c #515153",
"w	c #5D5D60",
"x	c #B6B6BB",
"y	c #5E5E61",
".....................................................................................",
".....................................................................................",
".....................................................................................",
".....................................................................................",
"..++.....++..................................++................@@....................",
"..++.....++.......................++.........++................@@....................",
"..++..............................++.........++................@@....................",
"..++++#$.++.++++%&...*=--=*.;>%+++++++...$#++++.*,%+=*.;>%++...@@@@').!~{]^/.(@_:@<..",
"..++[}+|.++.++12+%...3+[}+3.4+&5..++.....|+[}++.3+6$+4.4+&5....@@78@9.0@ab@c.deffgd..",
"..++55++.++.++5.++...++55++.++h...++.....++55++.++++++.++h.....@@;.@@.i@@@@j..k@@k...",
"..++6[+|.++.++..++...|+6[+|.4+&5..++l....|+6[++.4+}5...4+&5....@@..@@.c@mn...opqqro..",
"..++++#$.++.++..++...n=++sn.*>%++.t%++...$#++++.*>%+++.*>%++...@@..@@.uv'@@@.w@xx@y..",
".....................................................................................",
".....................................................................................",
".....................................................................................",
"....................................................................................."};
