/* XPM */
static const char * unit_hex_xpm[] = {
"85 16 54 1",
" 	c None",
".	c #E8E8E8",
"+	c #D0D0D0",
"@	c #000000",
"#	c #D3D3D3",
"$	c #E3E3E3",
"%	c #D1D1D1",
"&	c #DDDDDD",
"*	c #E4E4E4",
"=	c #D6D6D6",
"-	c #E5E5E5",
";	c #D7D7D7",
">	c #0F0F0F",
",	c #868686",
"'	c #CCCCCC",
")	c #464646",
"!	c #0A0A0A",
"~	c #070707",
"{	c #414141",
"]	c #CBCBCB",
"^	c #5D5D5D",
"/	c #A3A3A3",
"(	c #A2A2A2",
"_	c #5E5E5E",
":	c #E1E1E1",
"<	c #D4D4D4",
"[	c #E0E0E0",
"}	c #D5D5D5",
"|	c #E7E7E7",
"1	c #9A9A9A",
"2	c #C4C4C4",
"3	c #0B0B0B",
"4	c #333333",
"5	c #AAAAAA",
"6	c #B8B8B8",
"7	c #353535",
"8	c #373737",
"9	c #151515",
"0	c #383838",
"a	c #040404",
"b	c #020202",
"c	c #B5B5B5",
"d	c #E6E6E6",
"e	c #9E9E9E",
"f	c #2C2C2C",
"g	c #1D1D1D",
"h	c #2D2D2D",
"i	c #DBDBDB",
"j	c #D8D8D8",
"k	c #CECECE",
"l	c #4D4D4D",
"m	c #595959",
"n	c #ADADAD",
"o	c #5A5A5A",
".....................................................................................",
".....................................................................................",
".....................................................................................",
".....................................................................................",
"..++.....++..................................++................@@....................",
"..++.....++.......................++.........++................@@....................",
"..++..............................++.........++................@@....................",
"..++++#$.++.++++%&...*=++=*.-;%+++++++...$#++++.-;%+=-.-;%++...@@@@>,.')!~{].^@/(@_..",
"..++::+<.++.++[*+%...}+::+}.}+&|..++.....<+::++.}+:$+}.}+&|....@@12@3.4@56@7.$8990$..",
"..++||++.++.++|.++...++||++.++|...++.....++||++.++++++.++|.....@@-.@@.a@@@@b..c@@c...",
"..++::+<.++.++..++...}+::+}.}+&|..++d....<+::++.}+[|...}+&|....@@..@@.7@e*...[fggh[..",
"..++++#$.++.++..++...*=++=*.-;%++.i%++...$#++++.-j%+++.-;%++...@@..@@.kl>@@@.m@nn@o..",
".....................................................................................",
".....................................................................................",
".....................................................................................",
"....................................................................................."};
