/* XPM */
static const char * unit_dec_xpm[] = {
"85 16 58 1",
" 	c None",
".	c #FAFAFA",
"+	c #DEDEDE",
"@	c #000000",
"#	c #E2E2E2",
"$	c #F4F4F4",
"%	c #DFDFDF",
"&	c #EEEEEE",
"*	c #F6F6F6",
"=	c #E5E5E5",
"-	c #F7F7F7",
";	c #E7E7E7",
">	c #C7C7C7",
",	c #262626",
"'	c #DCDCDC",
")	c #4B4B4B",
"!	c #0B0B0B",
"~	c #070707",
"{	c #464646",
"]	c #DBDBDB",
"^	c #525252",
"/	c #0F0F0F",
"(	c #E6E6E6",
"_	c #E9E9E9",
":	c #F1F1F1",
"<	c #F2F2F2",
"[	c #E3E3E3",
"}	c #F0F0F0",
"|	c #F5F5F5",
"1	c #E4E4E4",
"2	c #F9F9F9",
"3	c #2E2E2E",
"4	c #B4B4B4",
"5	c #B2B2B2",
"6	c #373737",
"7	c #B7B7B7",
"8	c #393939",
"9	c #8F8F8F",
"0	c #E0E0E0",
"a	c #F8F8F8",
"b	c #030303",
"c	c #F3F3F3",
"d	c #040404",
"e	c #020202",
"f	c #B6B6B6",
"g	c #AAAAAA",
"h	c #383838",
"i	c #919191",
"j	c #E1E1E1",
"k	c #EBEBEB",
"l	c #C6C6C6",
"m	c #252525",
"n	c #535353",
"o	c #101010",
"p	c #DDDDDD",
"q	c #505050",
"r	c #0E0E0E",
"s	c #E8E8E8",
".....................................................................................",
".....................................................................................",
".....................................................................................",
".....................................................................................",
"..++.....++..................................@@................++....................",
"..++.....++.......................++.........@@................++....................",
"..++..............................++.........@@................++....................",
"..++++#$.++.++++%&...*=%%=*.-;%+++++++...>,@@@@.')!~{].%^/@@...++++%&.*(%+=*._+::+_..",
"..++<:+[.++.++}|+%...1+<:+1.1+&2..++.....3@45@@.6@7>@8.8@9$....++}|+%.1+<$+1.210012..",
"..++22++.++.++2.++...++22++.++a...++.....b@$c@@.d@@@@e.d@}.....++2.++.++++++..c++c...",
"..++<<+[.++.++..++...[+<<+[.1+&2..++-....3@f4@@.8@g*...h@i|....++..++.1+:2...2[jj[2..",
"..++++#$.++.++..++...*=++=*.*;%++.k%++...lm@@@@.+no@@@.pqr@@...++..++.*;%+++.s+<<+s..",
".....................................................................................",
".....................................................................................",
".....................................................................................",
"....................................................................................."};
