/* XPM */
static const char * unit_dec_xpm[] = {
"85 16 70 1",
" 	c None",
".	c #F4F4FA",
"+	c #DEDEDE",
"@	c #000000",
"#	c #E1E1E2",
"$	c #EFEFF4",
"%	c #DFDFDF",
"&	c #EAEAEE",
"*	c #F1F1F6",
"=	c #E4E4E5",
"-	c #DEDEDF",
";	c #F1F1F7",
">	c #E5E5E7",
",	c #C2C2C7",
"'	c #252526",
")	c #D7D7DC",
"!	c #49494B",
"~	c #0B0B0B",
"{	c #070707",
"]	c #444446",
"^	c #D6D6DB",
"/	c #DADADF",
"(	c #505052",
"_	c #0F0F0F",
":	c #E4E4E6",
"<	c #E6E6E9",
"[	c #EDEDF1",
"}	c #EDEDF2",
"|	c #E2E2E3",
"1	c #ECECF0",
"2	c #F0F0F5",
"3	c #E2E2E4",
"4	c #E3E3E4",
"5	c #F3F3F9",
"6	c #2C2C2E",
"7	c #B0B0B4",
"8	c #AEAEB2",
"9	c #363637",
"0	c #B2B2B7",
"a	c #383839",
"b	c #8B8B8F",
"c	c #EEEEF4",
"d	c #EEEEF2",
"e	c #E0E0E0",
"f	c #F3F3F8",
"g	c #030303",
"h	c #EDEDF3",
"i	c #040404",
"j	c #020202",
"k	c #EAEAF0",
"l	c #EFEFF3",
"m	c #F2F2F7",
"n	c #B1B1B6",
"o	c #A6A6AA",
"p	c #F0F0F6",
"q	c #373738",
"r	c #8D8D91",
"s	c #EFEFF5",
"t	c #E0E0E1",
"u	c #E3E3E5",
"v	c #E8E8EB",
"w	c #C1C1C6",
"x	c #242425",
"y	c #D9D9DE",
"z	c #515153",
"A	c #101010",
"B	c #D8D8DD",
"C	c #4E4E50",
"D	c #0E0E0E",
"E	c #E6E6E8",
".....................................................................................",
".....................................................................................",
".....................................................................................",
".....................................................................................",
"..++.....++..................................@@................++....................",
"..++.....++.......................++.........@@................++....................",
"..++..............................++.........@@................++....................",
"..++++#$.++.++++%&...*=--=*.;>%+++++++...,'@@@@.)!~{]^./(_@@...++++%&.*:%+=*.<+[[+<..",
"..++}[+|.++.++12+%...3+}[+3.4+&5..++.....6@78@@.9@0,@a.a@bc....++12+%.3+d$+4.54ee45..",
"..++55++.++.++5.++...++55++.++f...++.....g@ch@@.i@@@@j.i@k.....++5.++.++++++..l++l...",
"..++d}+|.++.++..++...|+d}+|.4+&5..++m....6@n7@@.a@op...q@rs....++..++.4+[5...5|tt|5..",
"..++++#$.++.++..++...p=++up.*>%++.v%++...wx@@@@.yzA@@@.BCD@@...++..++.*>%+++.E+dd+E..",
".....................................................................................",
".....................................................................................",
".....................................................................................",
"....................................................................................."};
