/* XPM */
static const char * unit_hex_xpm[] = {
"85 16 55 1",
" 	c None",
".	c #FAFAFA",
"+	c #DEDEDE",
"@	c #000000",
"#	c #E2E2E2",
"$	c #F4F4F4",
"%	c #DFDFDF",
"&	c #EEEEEE",
"*	c #F6F6F6",
"=	c #E5E5E5",
"-	c #F7F7F7",
";	c #E7E7E7",
">	c #E6E6E6",
",	c #101010",
"'	c #919191",
")	c #DCDCDC",
"!	c #4B4B4B",
"~	c #0B0B0B",
"{	c #070707",
"]	c #464646",
"^	c #DBDBDB",
"/	c #646464",
"(	c #B0B0B0",
"_	c #AFAFAF",
":	c #656565",
"<	c #F2F2F2",
"[	c #F1F1F1",
"}	c #E3E3E3",
"|	c #F0F0F0",
"1	c #F5F5F5",
"2	c #E4E4E4",
"3	c #F9F9F9",
"4	c #A6A6A6",
"5	c #D3D3D3",
"6	c #0C0C0C",
"7	c #373737",
"8	c #B7B7B7",
"9	c #C7C7C7",
"0	c #393939",
"a	c #3B3B3B",
"b	c #171717",
"c	c #3C3C3C",
"d	c #F8F8F8",
"e	c #040404",
"f	c #020202",
"g	c #C4C4C4",
"h	c #AAAAAA",
"i	c #303030",
"j	c #1F1F1F",
"k	c #313131",
"l	c #EBEBEB",
"m	c #535353",
"n	c #606060",
"o	c #BBBBBB",
"p	c #616161",
".....................................................................................",
".....................................................................................",
".....................................................................................",
".....................................................................................",
"..++.....++..................................++................@@....................",
"..++.....++.......................++.........++................@@....................",
"..++..............................++.........++................@@....................",
"..++++#$.++.++++%&...*=%%=*.-;%+++++++...$#++++.*>%+=*.-;%++...@@@@,'.)!~{]^./@(_@:..",
"..++<[+}.++.++|1+%...2+<[+2.2+&3..++.....}+<[++.2+<$+2.2+&3....@@45@6.7@89@0.1abbc1..",
"..++33++.++.++3.++...++33++.++d...++.....++33++.++++++.++d.....@@-.@@.e@@@@f..g@@g...",
"..++<<+}.++.++..++...}+<<+}.2+&3..++-....}+<<++.2+[3...2+&3....@@..@@.0@h*...<ijjk<..",
"..++++#$.++.++..++...*=++=*.*;%++.l%++...$#++++.*;%+++.*;%++...@@..@@.+m,@@@.n@oo@p..",
".....................................................................................",
".....................................................................................",
".....................................................................................",
"....................................................................................."};
