/* XPM */
static const char * unit_bin_xpm[] = {
"85 16 49 1",
" 	c None",
".	c #F4F4FA",
"+	c #000000",
"@	c #DEDEDE",
"#	c #252526",
"$	c #C4C4C8",
"%	c #101010",
"&	c #8D8D91",
"*	c #F1F1F6",
"=	c #E4E4E5",
"-	c #DEDEDF",
";	c #F1F1F7",
">	c #E5E5E7",
",	c #DFDFDF",
"'	c #EFEFF4",
")	c #E1E1E2",
"!	c #E4E4E6",
"~	c #EAEAEE",
"{	c #E6E6E9",
"]	c #EDEDF1",
"^	c #B0B0B4",
"/	c #AEAEB2",
"(	c #2E2E30",
"_	c #A2A2A6",
":	c #CECED3",
"<	c #0C0C0C",
"[	c #E2E2E4",
"}	c #EDEDF2",
"|	c #E3E3E4",
"1	c #F3F3F9",
"2	c #E2E2E3",
"3	c #EEEEF2",
"4	c #ECECF0",
"5	c #F0F0F5",
"6	c #E0E0E0",
"7	c #EEEEF4",
"8	c #EDEDF3",
"9	c #040404",
"0	c #F3F3F8",
"a	c #EFEFF3",
"b	c #B1B1B6",
"c	c #2D2D2F",
"d	c #F2F2F7",
"e	c #E0E0E1",
"f	c #242425",
"g	c #F0F0F6",
"h	c #E3E3E5",
"i	c #E8E8EB",
"j	c #E6E6E8",
".....................................................................................",
".....................................................................................",
".....................................................................................",
".....................................................................................",
"..++.....++..................................@@................@@....................",
"..++.....++.......................@@.........@@................@@....................",
"..++..............................@@.........@@................@@....................",
"..++++#$.++.++++%&...*=--=*.;>,@@@@@@@...')@@@@.*!,@=*.;>,@@...@@@@,~.*!,@=*.{@]]@{..",
"..++^/+(.++.++_:+<...[@}]@[.|@~1..@@.....2@}]@@.[@3'@|.|@~1....@@45@,.[@3'@|.1|66|1..",
"..++78+9.++.++;.++...@@11@@.@@0...@@.....@@11@@.@@@@@@.@@0.....@@1.@@.@@@@@@..a@@a...",
"..++b^+c.++.++..++...2@3}@2.|@~1..@@d....2@3}@@.|@]1...|@~1....@@..@@.|@]1...12ee21..",
"..++++f$.++.++..++...g=@@hg.*>,@@.i,@@...')@@@@.*>,@@@.*>,@@...@@..@@.*>,@@@.j@33@j..",
".....................................................................................",
".....................................................................................",
".....................................................................................",
"....................................................................................."};
