/* XPM */
static const char * unit_bin_xpm[] = {
"85 16 41 1",
" 	c None",
".	c #FAFAFA",
"+	c #000000",
"@	c #DEDEDE",
"#	c #262626",
"$	c #C8C8C8",
"%	c #101010",
"&	c #919191",
"*	c #F6F6F6",
"=	c #E5E5E5",
"-	c #DFDFDF",
";	c #F7F7F7",
">	c #E7E7E7",
",	c #F4F4F4",
"'	c #E2E2E2",
")	c #E6E6E6",
"!	c #EEEEEE",
"~	c #E9E9E9",
"{	c #F1F1F1",
"]	c #B4B4B4",
"^	c #B2B2B2",
"/	c #303030",
"(	c #A6A6A6",
"_	c #D3D3D3",
":	c #0C0C0C",
"<	c #E4E4E4",
"[	c #F2F2F2",
"}	c #F9F9F9",
"|	c #E3E3E3",
"1	c #F0F0F0",
"2	c #F5F5F5",
"3	c #E0E0E0",
"4	c #F3F3F3",
"5	c #040404",
"6	c #F8F8F8",
"7	c #B6B6B6",
"8	c #2F2F2F",
"9	c #E1E1E1",
"0	c #252525",
"a	c #EBEBEB",
"b	c #E8E8E8",
".....................................................................................",
".....................................................................................",
".....................................................................................",
".....................................................................................",
"..++.....++..................................@@................@@....................",
"..++.....++.......................@@.........@@................@@....................",
"..++..............................@@.........@@................@@....................",
"..++++#$.++.++++%&...*=--=*.;>-@@@@@@@...,'@@@@.*)-@=*.;>-@@...@@@@-!.*)-@=*.~@{{@~..",
"..++]^+/.++.++(_+:...<@[{@<.<@!}..@@.....|@[{@@.<@[,@<.<@!}....@@12@-.<@[,@<.}<33<}..",
"..++,4+5.++.++;.++...@@}}@@.@@6...@@.....@@}}@@.@@@@@@.@@6.....@@}.@@.@@@@@@..4@@4...",
"..++7]+8.++.++..++...|@[[@|.<@!}..@@;....|@[[@@.<@{}...<@!}....@@..@@.<@{}...}|99|}..",
"..++++0$.++.++..++...*=@@=*.*>-@@.a-@@...,'@@@@.*>-@@@.*>-@@...@@..@@.*>-@@@.b@[[@b..",
".....................................................................................",
".....................................................................................",
".....................................................................................",
"....................................................................................."};
