/* XPM */
static const char * angle_deg_xpm[] = {
"45 16 46 1",
" 	c None",
".	c #FAFAFA",
"+	c #000000",
"@	c #DEDEDE",
"#	c #C7C7C7",
"$	c #262626",
"%	c #DCDCDC",
"&	c #4B4B4B",
"*	c #0B0B0B",
"=	c #070707",
"-	c #464646",
";	c #DBDBDB",
">	c #E3E3E3",
",	c #F3F3F3",
"'	c #F4F4F4",
")	c #E2E2E2",
"!	c #2E2E2E",
"~	c #B4B4B4",
"{	c #B2B2B2",
"]	c #373737",
"^	c #B7B7B7",
"/	c #393939",
"(	c #F0F0F0",
"_	c #F9F9F9",
":	c #E1E1E1",
"<	c #F2F2F2",
"[	c #F1F1F1",
"}	c #030303",
"|	c #040404",
"1	c #020202",
"2	c #EEEEEE",
"3	c #B6B6B6",
"4	c #AAAAAA",
"5	c #F6F6F6",
"6	c #C6C6C6",
"7	c #252525",
"8	c #535353",
"9	c #101010",
"0	c #ECECEC",
"a	c #DFDFDF",
"b	c #F8F8F8",
"c	c #BBBBBB",
"d	c #181818",
"e	c #080808",
"f	c #363636",
"g	c #BDBDBD",
".............................................",
".............................................",
".............................................",
".............................................",
"......++.................................@@..",
"......++.................................@@..",
"......++.................................@@..",
"..#$++++.%&*=-;.#$++++...@@@@.@@@@>,.')@@@@..",
"..!+~{++.]+^#+/.!+{{++...@@(_..._'@:.>@<[@@..",
"..}+',++.|++++1.}+',++...@@_..2:@@@@.@@__@@..",
"..!+3~++./+45...!+3{++...@@...@@',@@.>@<<@@..",
"..67++++.@89+++.67++++...@@...0a@@@@.')@@@@..",
"..................bc+d.......................",
".................++efg.......................",
".............................................",
"............................................."};
