/* XPM */
static const char * angle_rad_s1_xpm[] = {
"45 16 52 1",
" 	c None",
".	c #C8DAD0",
"+	c #94A19A",
"@	c #000000",
"#	c #BDCEC4",
"$	c #9BA9A2",
"%	c #C1D3C9",
"&	c #A3B2AA",
"*	c #96A39C",
"=	c #95A29B",
"-	c #A2B1A9",
";	c #050505",
">	c #282C2A",
",	c #98A69F",
"'	c #9FADA5",
")	c #1E211F",
"!	c #9DABA3",
"~	c #B9CAC0",
"{	c #B9C9C0",
"]	c #9FADA6",
"^	c #BACAC1",
"/	c #A0AEA6",
"(	c #85918A",
"_	c #C7D9CF",
":	c #C5D7CD",
"<	c #1B1D1C",
"[	c #242826",
"}	c #909D96",
"|	c #8E9B94",
"1	c #C6D8CE",
"2	c #737D77",
"3	c #1A1D1B",
"4	c #030303",
"5	c #C3D4CB",
"6	c #C2D4CA",
"7	c #B9CAC1",
"8	c #B7C7BE",
"9	c #070707",
"0	c #A3B1A9",
"a	c #9CAAA2",
"b	c #919F97",
"c	c #C2D3CA",
"d	c #A5B4AC",
"e	c #97A49D",
"f	c #69736E",
"g	c #0E0F0E",
"h	c #9EACA4",
"i	c #1D201E",
"j	c #BACBC2",
"k	c #99A69F",
"l	c #95A39B",
"m	c #BBCCC2",
".............................................",
".............................................",
".............................................",
".............................................",
"......++.................................@@..",
"......++.................................@@..",
"......++.................................@@..",
"..#$++++.%&*=-%.#$++++...@@@@.@@@;>,.')@@@@..",
"..!+~{++.]+^#+/.!+{{++...@@(_...:/@<.[@}|@@..",
"..++11++.=+++++.++11++...@@:..234@@@.4@56@@..",
"..!+7~++./+8_...!+7{++...@@...9@0a@@.[@b}@@..",
"..#$++++.cde+++.#$++++...@@...fg@@@@.hi@@@@..",
".................._j+k.......................",
".................++l'm.......................",
".............................................",
"............................................."};
