/* XPM */
static const char * gray_small_unsel_xpm[] = {
"35 29 171 2",
"  	c None",
". 	c #727274",
"+ 	c #2D2D2F",
"@ 	c #000000",
"# 	c #12151A",
"$ 	c #061117",
"% 	c #262626",
"& 	c #3A3A39",
"* 	c #5C5A57",
"= 	c #86847F",
"- 	c #898782",
"; 	c #898681",
"> 	c #85837D",
", 	c #84837A",
"' 	c #89857F",
") 	c #888280",
"! 	c #86827E",
"~ 	c #84827C",
"{ 	c #83857C",
"] 	c #7F827F",
"^ 	c #87847B",
"/ 	c #88867B",
"( 	c #81837D",
"_ 	c #84827F",
": 	c #89837E",
"< 	c #86827D",
"[ 	c #888580",
"} 	c #878480",
"| 	c #87847F",
"1 	c #8B8883",
"2 	c #908C88",
"3 	c #807578",
"4 	c #030E13",
"5 	c #353632",
"6 	c #565454",
"7 	c #77766F",
"8 	c #716C63",
"9 	c #857E82",
"0 	c #9B9E9A",
"a 	c #031418",
"b 	c #616166",
"c 	c #5C575B",
"d 	c #D0D9DD",
"e 	c #7E6752",
"f 	c #020F11",
"g 	c #051C1D",
"h 	c #0C201F",
"i 	c #302514",
"j 	c #071715",
"k 	c #08151B",
"l 	c #091B1F",
"m 	c #0A2124",
"n 	c #0C1C20",
"o 	c #0F1D23",
"p 	c #0F1920",
"q 	c #16242C",
"r 	c #6E6767",
"s 	c #69645E",
"t 	c #626060",
"u 	c #C5C8D1",
"v 	c #785F50",
"w 	c #162731",
"x 	c #555350",
"y 	c #645D5D",
"z 	c #645C59",
"A 	c #655D5A",
"B 	c #645D5A",
"C 	c #635E59",
"D 	c #645F5A",
"E 	c #65605B",
"F 	c #65605A",
"G 	c #655F59",
"H 	c #64605A",
"I 	c #62605B",
"J 	c #625F5A",
"K 	c #63605A",
"L 	c #625F59",
"M 	c #626059",
"N 	c #5B5C5C",
"O 	c #919692",
"P 	c #0E1F2C",
"Q 	c #564A40",
"R 	c #655D59",
"S 	c #665E5B",
"T 	c #655E5B",
"U 	c #645E5A",
"V 	c #635E5A",
"W 	c #645F5B",
"X 	c #645F59",
"Y 	c #63615C",
"Z 	c #63605C",
"` 	c #64615C",
" .	c #61605C",
"..	c #63605B",
"+.	c #605F58",
"@.	c #132332",
"#.	c #665D5B",
"$.	c #635E5B",
"%.	c #625F5B",
"&.	c #605F5C",
"*.	c #615F5B",
"=.	c #615E59",
"-.	c #5F5E58",
";.	c #323940",
">.	c #625D57",
",.	c #645E59",
"'.	c #655F5A",
").	c #635D58",
"!.	c #625D58",
"~.	c #645F5C",
"{.	c #65605C",
"].	c #615E57",
"^.	c #625F58",
"/.	c #616059",
"(.	c #615E58",
"_.	c #636059",
":.	c #64615A",
"<.	c #5E5B56",
"[.	c #635E58",
"}.	c #656059",
"|.	c #64615B",
"1.	c #635F59",
"2.	c #62615A",
"3.	c #65625C",
"4.	c #65625B",
"5.	c #64605B",
"6.	c #645E58",
"7.	c #645F58",
"8.	c #625D59",
"9.	c #635F5A",
"0.	c #625E5A",
"a.	c #65625D",
"b.	c #68635F",
"c.	c #66605C",
"d.	c #67605C",
"e.	c #64615D",
"f.	c #6C696B",
"g.	c #4C3F31",
"h.	c #202020",
"i.	c #3A3A37",
"j.	c #6C6461",
"k.	c #716968",
"l.	c #1F1F1A",
"m.	c #2E2B25",
"n.	c #3A352F",
"o.	c #423E38",
"p.	c #403B35",
"q.	c #413C36",
"r.	c #44403A",
"s.	c #423E37",
"t.	c #423E35",
"u.	c #403B33",
"v.	c #413C34",
"w.	c #423D35",
"x.	c #423D36",
"y.	c #413D34",
"z.	c #403C34",
"A.	c #403C33",
"B.	c #423F36",
"C.	c #433F36",
"D.	c #403D34",
"E.	c #403B34",
"F.	c #45403B",
"G.	c #47433D",
"H.	c #433F39",
"I.	c #433E39",
"J.	c #44403B",
"K.	c #47423B",
"L.	c #4B423D",
"M.	c #372E28",
"N.	c #4F4F51",
". + + + + + + + + + + + + + + + + + + + + + + + + + + + + + + + + + . ",
"@ @ @ @ @ @ @ @ @ @ @ @ @ @ @ @ @ @ @ @ @ @ @ @ @ @ @ @ @ @ @ @ @ @ # ",
"@ @ @ @ @ @ @ @ @ @ @ @ @ @ @ @ @ @ @ @ @ @ @ @ @ @ @ @ @ @ @ @ @ @ $ ",
"@ @ @ % & * = - ; ; ; > , ' ) ! ~ { ] ^ / ( _ : < [ } | 1 2 3 @ @ @ 4 ",
"@ @ @ 5 6 7 8 8 8 8 8 8 8 8 8 8 8 8 8 8 8 8 8 8 8 8 8 8 8 8 9 0 @ @ a ",
"@ @ @ 5 b 7 8 8 8 8 8 8 8 8 8 8 8 8 8 8 8 8 8 8 8 8 8 8 8 8 c d e @ f ",
"@ @ @ 5 b 7 8 8 8 8 8 8 8 8 8 8 8 8 8 8 8 8 8 8 8 8 8 8 8 8 c d e @ g ",
"@ @ @ 5 b 7 8 8 8 8 8 8 8 8 8 8 8 8 8 8 8 8 8 8 8 8 8 8 8 8 c d e @ h ",
"i @ @ 5 b 7 8 8 8 8 8 8 8 8 8 8 8 8 8 8 8 8 8 8 8 8 8 8 8 8 c d e @ j ",
"i @ @ 5 b 7 8 8 8 8 8 8 8 8 8 8 8 8 8 8 8 8 8 8 8 8 8 8 8 8 c d e @ k ",
"i @ @ 5 b 7 8 8 8 8 8 8 8 8 8 8 8 8 8 8 8 8 8 8 8 8 8 8 8 8 c d e @ l ",
"i @ @ 5 b 7 8 8 8 8 8 8 8 8 8 8 8 8 8 8 8 8 8 8 8 8 8 8 8 8 c d e @ m ",
"i @ @ 5 b 7 8 8 8 8 8 8 8 8 8 8 8 8 8 8 8 8 8 8 8 8 8 8 8 8 c d e @ n ",
"i @ @ 5 b 7 8 8 8 8 8 8 8 8 8 8 8 8 8 8 8 8 8 8 8 8 8 8 8 8 c d e @ o ",
"i @ @ 5 b 7 8 8 8 8 8 8 8 8 8 8 8 8 8 8 8 8 8 8 8 8 8 8 8 8 c d e @ p ",
"i @ @ 5 b 7 8 8 8 8 8 8 8 8 8 8 8 8 8 8 8 8 8 8 8 8 8 8 8 8 c d e @ q ",
"i @ @ 5 b r s s s s s s s s s s s s s s s s s s s s s s s s t u v @ w ",
"i @ @ 5 x y z A A A A B C D D D E E F G H I J J K L L J K M N O v @ P ",
"Q @ @ 5 x y R A S S S T U V W W W W X Y Z ` I  ...J ....J +.N O v @ @.",
"Q @ @ 5 x y A A A #.S T V V $.W W D J J %.%.&.*.J J %...=.-.N O v @ ;.",
"Q @ @ 5 x y >.,.,.X '.).!.X D ~.{.C ].K ^.+.+./.^.(._.:.(.<.N O v @ ;.",
"Q @ @ 5 x y X F [.X X >.[.}.D {.V C ^.|._.1.2.2._._.:.3.4.5.N O v @ ;.",
"Q @ @ 5 x y 6.X [.X F 7.[.[.X V V 8.V 9.0.=.=.I ..=.J ` a...N O v @ ;.",
"Q @ @ 5 x y W ~.C V E V 7.X D {.{.{.5.W 9.....` ` ` ....a.H N O v @ ;.",
"Q @ @ 5 x y b.b.{.{.{.C [.[.D ~.{.c.d.W V W ....e.a.....Z }.f.O g.@ ;.",
"Q @ @ h.i.j.j.j.j.j.j.j.j.j.j.j.j.j.j.j.j.j.j.j.j.j.j.j.j.j.j.k.@ @ ;.",
"Q @ @ @ l.m.n.o.p.q.r.s.t.u.v.w.x.y.z.A.B.C.D.E.F.G.H.I.J.K.L.M.@ @ ;.",
"Q Q @ @ @ @ @ @ @ @ @ @ @ @ @ @ @ @ @ @ @ @ @ @ @ @ @ @ @ @ @ @ @ ;.;.",
". N.N.N.N.N.N.N.N.N.N.N.N.N.N.N.N.N.N.N.N.N.N.N.N.N.N.N.N.N.N.N.N.N.. "};
