/* XPM */
static const char * shiftuns_s1_xpm[] = {
"32 16 24 1",
" 	c None",
".	c #C8DAD0",
"+	c #ADBCB4",
"@	c #94A19A",
"#	c #9FADA5",
"$	c #ACBBB3",
"%	c #B8C8BF",
"&	c #AFBEB6",
"*	c #A3B1AA",
"=	c #ACBCB3",
"-	c #A1AFA7",
";	c #B3C3BB",
">	c #BCCDC3",
",	c #B1C0B8",
"'	c #A3B2AA",
")	c #B3C3BA",
"!	c #ABBBB2",
"~	c #A2B1A9",
"{	c #AEBEB5",
"]	c #A6B4AC",
"^	c #ABBAB2",
"/	c #A1B0A8",
"(	c #9EACA5",
"_	c #A5B4AC",
"................................",
"................................",
"................................",
"................................",
".....................+@@@#$%....",
"....................&*@@@@#=....",
"........................@@@-....",
".......................@@@@@....",
"......................;@@.@@....",
"....................>,@').@@....",
"...!~@@@@@@@@@@@@@@@@@-{..]{....",
"...^/@@@@@@@@@@@@@@@(_)...!.....",
"................................",
"................................",
"................................",
"................................"};
