/* XPM */
static const char * unit_oct_s1_xpm[] = {
"85 16 77 1",
" 	c None",
".	c #C8DAD0",
"+	c #94A19A",
"@	c #000000",
"#	c #9BA9A2",
"$	c #BDCEC5",
"%	c #97A49D",
"&	c #B2C2B9",
"*	c #ADBCB4",
"=	c #383D3A",
"-	c #070808",
";	c #373C39",
">	c #AEBDB5",
",	c #414744",
"'	c #0C0D0D",
")	c #BDCEC4",
"!	c #C1D3C9",
"~	c #A3B2AA",
"{	c #96A39C",
"]	c #95A29B",
"^	c #A2B1A9",
"/	c #C2D3CA",
"(	c #A5B3AB",
"_	c #A9B8AF",
":	c #B8C9C0",
"<	c #B8C9BF",
"[	c #A9B8B0",
"}	c #B9CAC0",
"|	c #B9C9C0",
"1	c #9DABA4",
"2	c #B6C7BE",
"3	c #C0D1C7",
"4	c #2B2F2C",
"5	c #909D96",
"6	c #8E9B94",
"7	c #2E3230",
"8	c #727C77",
"9	c #C3D4CB",
"0	c #9DABA3",
"a	c #9FADA6",
"b	c #BACAC1",
"c	c #A0AEA6",
"d	c #B1C1B8",
"e	c #C6D8CE",
"f	c #98A69F",
"g	c #A0AEA7",
"h	c #C7D9CF",
"i	c #030303",
"j	c #C2D4CA",
"k	c #030404",
"l	c #C5D7CD",
"m	c #BCCDC4",
"n	c #B9CAC1",
"o	c #2A2E2C",
"p	c #919F97",
"q	c #2D312F",
"r	c #747E78",
"s	c #C4D5CB",
"t	c #B8C8BF",
"u	c #B7C7BE",
"v	c #9AA8A0",
"w	c #9EACA4",
"x	c #ABBBB2",
"y	c #363B39",
"z	c #070707",
"A	c #363A38",
"B	c #ACBCB3",
"C	c #404642",
"D	c #0B0C0C",
"E	c #5D6561",
"F	c #0A0B0A",
"G	c #A5B4AC",
"H	c #C2D3C9",
"I	c #A4B3AB",
"J	c #A7B6AE",
"K	c #BACBC2",
"L	c #A8B7AE",
".....................................................................................",
".....................................................................................",
".....................................................................................",
".....................................................................................",
"..++.....++..................................++................++....................",
"..++.....++.......................@@.........++................++....................",
"..++..............................@@.........++................++....................",
"..++++#$.++.++++%&...*=--;>.&,'@@@@@@@...)#++++.!~{]^!./(%++...++++%&.!~{]^!._+:<+[..",
"..++}|+1.++.++23+{...4@56@4.7@89..@@.....0+}|++.a+b)+c.c+de....++23+{.a+b)+c.ecffge..",
"..++ee+].++.++h.++...i@9j@k.k@3...@@.....++ee++.]+++++.]+l.....++h.++.]+++++..m++m...",
"..++n}+1.++.++..++...o@p5@o.q@rs..k@t....0+n}++.c+uh...a+&e....++..++.c+uh...e1vvwe..",
"..++++#$.++.++..++...xyzzAB.dCD@@.EF@@...)#++++./G%+++.HI%++...++..++./G%+++.J+KK+L..",
".....................................................................................",
".....................................................................................",
".....................................................................................",
"....................................................................................."};
