/* XPM */
static const char * unit_bin_s1_xpm[] = {
"85 16 70 1",
" 	c None",
".	c #C8DAD0",
"+	c #000000",
"@	c #94A19A",
"#	c #1E211F",
"$	c #A0AFA7",
"%	c #0D0E0D",
"&	c #747E78",
"*	c #C1D2C8",
"=	c #A2B1A9",
"-	c #96A39C",
";	c #A2B0A9",
">	c #C1D2C9",
",	c #C2D3CA",
"'	c #A5B3AB",
")	c #97A49D",
"!	c #BDCEC4",
"~	c #9BA9A2",
"{	c #C1D3C9",
"]	c #A3B2AA",
"^	c #95A29B",
"/	c #B2C2B9",
"(	c #A9B8AF",
"_	c #B8C9C0",
":	c #B8C9BF",
"<	c #A9B8B0",
"[	c #909D96",
"}	c #8E9B94",
"|	c #262927",
"1	c #85918A",
"2	c #0A0B0A",
"3	c #9FADA5",
"4	c #B9CAC0",
"5	c #B9C9C0",
"6	c #A0AEA6",
"7	c #B1C1B8",
"8	c #C6D8CE",
"9	c #9DABA3",
"0	c #9FADA6",
"a	c #BACAC1",
"b	c #B6C7BE",
"c	c #C0D1C7",
"d	c #98A69F",
"e	c #A0AEA7",
"f	c #C3D4CB",
"g	c #C2D4CA",
"h	c #030404",
"i	c #C5D7CD",
"j	c #C7D9CF",
"k	c #BCCDC4",
"l	c #919F97",
"m	c #252927",
"n	c #B9CAC1",
"o	c #C3D5CB",
"p	c #B7C7BE",
"q	c #9DABA4",
"r	c #9AA8A0",
"s	c #9EACA4",
"t	c #1D201E",
"u	c #C0D1C8",
"v	c #A2B0A8",
"w	c #95A39B",
"x	c #C0D2C8",
"y	c #C2D3C9",
"z	c #A4B3AB",
"A	c #ACBBB3",
"B	c #A5B4AC",
"C	c #A7B6AE",
"D	c #BACBC2",
"E	c #A8B7AE",
".....................................................................................",
".....................................................................................",
".....................................................................................",
".....................................................................................",
"..++.....++..................................@@................@@....................",
"..++.....++.......................@@.........@@................@@....................",
"..++..............................@@.........@@................@@....................",
"..++++#$.++.++++%&...*=--;>.,')@@@@@@@...!~@@@@.{]-^={.,')@@...@@@@)/.{]-^={.(@_:@<..",
"..++[}+|.++.++1<+2...3@45@3.6@78..@@.....9@45@@.0@a!@6.6@78....@@bc@-.0@a!@6.86dde8..",
"..++fg+h.++.++i.++...@@88@^.^@i...@@.....@@88@@.^@@@@@.^@i.....@@j.@@.^@@@@@..k@@k...",
"..++l[+m.++.++..++...3@n4@3.0@/8..^@o....9@n4@@.6@pj...0@/8....@@..@@.6@pj...8qrrs8..",
"..++++t$.++.++..++...uvwwvx.yz)@@.A-@@...!~@@@@.,B)@@@.yz)@@...@@..@@.,B)@@@.C@DD@E..",
".....................................................................................",
".....................................................................................",
".....................................................................................",
"....................................................................................."};
