/* XPM */
static const char * white_small_unsel_xpm[] = {
"35 29 111 2",
"  	c None",
". 	c #A1A2A4",
"+ 	c #5E605E",
"@ 	c #000000",
"# 	c #49575E",
"$ 	c #2C2D24",
"% 	c #54514A",
"& 	c #57534D",
"* 	c #5A544E",
"= 	c #5C5651",
"- 	c #5C564D",
"; 	c #5E5A4F",
"> 	c #5E594E",
", 	c #5A554B",
"' 	c #5D5752",
") 	c #605A52",
"! 	c #5E5850",
"~ 	c #656058",
"{ 	c #5A544D",
"] 	c #5C564F",
"^ 	c #5B554D",
"/ 	c #5C574C",
"( 	c #5E584E",
"_ 	c #5D574C",
": 	c #595449",
"< 	c #585248",
"[ 	c #564F49",
"} 	c #534C41",
"| 	c #4F4839",
"1 	c #312D20",
"2 	c #121009",
"3 	c #10100C",
"4 	c #464842",
"5 	c #A1A19D",
"6 	c #D4D3CD",
"7 	c #9B938D",
"8 	c #1D1614",
"9 	c #595D5A",
"0 	c #DDDDDB",
"a 	c #CDCCCB",
"b 	c #A59E96",
"c 	c #585C5E",
"d 	c #B2B3B4",
"e 	c #D0CFCB",
"f 	c #CCCBC9",
"g 	c #E0E1E3",
"h 	c #EBE9E1",
"i 	c #5A3C23",
"j 	c #5C5F64",
"k 	c #B7B7BA",
"l 	c #5B5E63",
"m 	c #BCBDBE",
"n 	c #5E6164",
"o 	c #BEBFC0",
"p 	c #5B5F60",
"q 	c #BEBFBE",
"r 	c #5B5E60",
"s 	c #BFC0C0",
"t 	c #595D5F",
"u 	c #BDBDBF",
"v 	c #BDBEBF",
"w 	c #585C5F",
"x 	c #BFBFC2",
"y 	c #565A5E",
"z 	c #BFC0C3",
"A 	c #575A5C",
"B 	c #C0C1C0",
"C 	c #585D5D",
"D 	c #B6B7B5",
"E 	c #585A5B",
"F 	c #A2A4A3",
"G 	c #C6C3C2",
"H 	c #E0E0E2",
"I 	c #EEE1DC",
"J 	c #5D5E60",
"K 	c #9F9F9F",
"L 	c #C3BFBC",
"M 	c #606162",
"N 	c #A4A4A3",
"O 	c #616264",
"P 	c #A9A8A7",
"Q 	c #A6A5A5",
"R 	c #9E9D9D",
"S 	c #646568",
"T 	c #9A999B",
"U 	c #666563",
"V 	c #8A8988",
"W 	c #DBCDC6",
"X 	c #4C433D",
"Y 	c #3E403D",
"Z 	c #C4C0BC",
"` 	c #C5C5C0",
" .	c #C3C4BE",
"..	c #C3C2BE",
"+.	c #C4C3BF",
"@.	c #C5C4C0",
"#.	c #C4C3C2",
"$.	c #C4C3C1",
"%.	c #C5C1C0",
"&.	c #C6C2C1",
"*.	c #C4C0BF",
"=.	c #C7C3C2",
"-.	c #C8C3C3",
";.	c #CAC4C2",
">.	c #C7C2C4",
",.	c #C3C2C3",
"'.	c #C7C4C4",
").	c #9D9388",
"!.	c #9C9895",
"~.	c #464542",
"{.	c #3E3D3C",
". + @ @ @ @ @ @ @ @ @ @ @ @ @ @ @ @ @ @ @ @ @ @ @ @ @ @ @ @ @ @ @ + . ",
"@ @ @ @ @ @ @ @ @ @ @ @ @ @ @ @ @ @ @ @ @ @ @ @ @ @ @ @ @ @ @ @ @ @ # ",
"@ @ @ @ $ % & * = - ; > , ' ) ! ~ { ] ^ / ( _ : < , [ } | 1 2 3 @ @ # ",
"@ @ @ 4 5 6 6 6 6 6 6 6 6 6 6 6 6 6 6 6 6 6 6 6 6 6 6 6 6 6 7 8 @ @ # ",
"@ @ 9 5 0 a a a a a a a a a a a a a a a a a a a a a a a a a 0 b @ @ # ",
"@ @ c d e f f f f f f f f f f f f f f f f f f f f f f f f f g h i @ # ",
"@ @ j k e f f f f f f f f f f f f f f f f f f f f f f f f f g h i @ # ",
"@ @ l m e f f f f f f f f f f f f f f f f f f f f f f f f f g h i @ # ",
"@ @ n o e f f f f f f f f f f f f f f f f f f f f f f f f f g h i @ # ",
"@ @ p q e f f f f f f f f f f f f f f f f f f f f f f f f f g h i @ # ",
"@ @ r s e f f f f f f f f f f f f f f f f f f f f f f f f f g h i @ # ",
"@ @ t u e f f f f f f f f f f f f f f f f f f f f f f f f f g h i @ # ",
"@ @ c v e f f f f f f f f f f f f f f f f f f f f f f f f f g h i @ # ",
"@ @ w x e f f f f f f f f f f f f f f f f f f f f f f f f f g h i @ # ",
"@ @ y z e f f f f f f f f f f f f f f f f f f f f f f f f f g h i @ # ",
"@ @ A B e f f f f f f f f f f f f f f f f f f f f f f f f f g h i @ # ",
"@ @ C D e f f f f f f f f f f f f f f f f f f f f f f f f f g h i @ # ",
"@ @ E F G G G G G G G G G G G G G G G G G G G G G G G G G G H I i @ # ",
"@ @ J K L L L L L L L L L L L L L L L L L L L L L L L L L L H I i @ # ",
"@ @ M N L L L L L L L L L L L L L L L L L L L L L L L L L L H I i @ # ",
"@ @ O P L L L L L L L L L L L L L L L L L L L L L L L L L L H I i @ # ",
"@ @ + Q L L L L L L L L L L L L L L L L L L L L L L L L L L H I i @ # ",
"@ @ O R L L L L L L L L L L L L L L L L L L L L L L L L L L H I i @ # ",
"@ @ S T L L L L L L L L L L L L L L L L L L L L L L L L L L H I i @ # ",
"@ @ U V L L L L L L L L L L L L L L L L L L L L L L L L L L H W X @ # ",
"@ @ Y U V Z `  ...+.@.@.@.@.#.#.$.%.&.&.*.%.&.&.=.-.;.>.,.'.H ).X @ # ",
"@ @ @ Y U !.!.!.!.!.!.!.!.!.!.!.!.!.!.!.!.!.!.!.!.!.!.!.!.!.W X @ @ # ",
"@ @ @ @ @ @ @ @ @ @ @ @ @ @ @ @ @ @ @ @ @ @ @ @ @ @ @ @ @ @ @ @ @ @ # ",
". ~.~.~.~.{.{.{.{.{.{.{.{.{.{.{.{.{.{.{.{.{.{.{.{.{.{.{.{.{.{.{.{.+ . "};
