/* XPM */
static const char * white_div_unsel_xpm[] = {
"45 29 66 1",
" 	c None",
".	c #B1AAAD",
"+	c #6F6862",
"@	c #604E45",
"#	c #75706D",
"$	c #A9A8A8",
"%	c #6F6463",
"&	c #000000",
"*	c #566771",
"=	c #472823",
"-	c #44494E",
";	c #8F9D9B",
">	c #656569",
",	c #322E2E",
"'	c #090402",
")	c #767978",
"!	c #E6E5E4",
"~	c #C0BDBA",
"{	c #B6B8B9",
"]	c #CBC7C6",
"^	c #B1AEAD",
"/	c #DADDE1",
"(	c #F8E7DD",
"_	c #555B5F",
":	c #898E90",
"<	c #CACCCD",
"[	c #585C60",
"}	c #53585C",
"|	c #515A5C",
"1	c #9B9897",
"2	c #505B5C",
"3	c #4B5456",
"4	c #495356",
"5	c #4A5158",
"6	c #4C5357",
"7	c #B6B2B1",
"8	c #4C5458",
"9	c #4D5552",
"0	c #C6C2C1",
"a	c #9D9A99",
"b	c #4D5551",
"c	c #818589",
"d	c #C8C4C3",
"e	c #C3BFBE",
"f	c #505753",
"g	c #B4B5B5",
"h	c #BFBCBB",
"i	c #DBDDE3",
"j	c #CFB1A1",
"k	c #565A56",
"l	c #585D59",
"m	c #565A59",
"n	c #585C61",
"o	c #57575D",
"p	c #4C4B4F",
"q	c #F2EDEE",
"r	c #6B6865",
"s	c #E2D4CB",
"t	c #988171",
"u	c #4C4842",
"v	c #767267",
"w	c #B9A89E",
"x	c #BAAEA8",
"y	c #9C9795",
"z	c #2C333B",
"A	c #879196",
".+@@@@@@@@@@@@@@@@@@@@@@@@@@@@@@@@@@@@@@@@@#$",
"%&&&&&&&&&&&&&&&&&&&&&&&&&&&&&&&&&&&&&&&&&&&*",
"=&&&&&&&&&&&&&&&&&&&&&&&&&&&&&&&&&&&&&&&&&&&*",
"=&&--;;;;;;;;;;;;;;;;;;;;;;;;;;;;;;;;;;>,'&&*",
"=&--)!!!!!!!!!!!!!!!!!!!!!!!!!!!!!!!!!!!~>&&*",
"=&-){]]]]]]]]]]]]]]]]]^^]]]]]]]]]]]]]]]]/(&&*",
"=&_:<]]]]]]]]]]]]]]]]^&&^]]]]]]]]]]]]]]]/(&&*",
"=&[:<]]]]]]]]]]]]]]]]]^^]]]]]]]]]]]]]]]]/(&&*",
"=&}:<]]]]]]]]]]]]]]]]]]]]]]]]]]]]]]]]]]]/(&&*",
"=&|:<]]]]]]]]]]]1^^^^^^^^^^^^1]]]]]]]]]]/(&&*",
"=&2:<]]]]]]]]]]1&&&&&&&&&&&&&&^]]]]]]]]]/(&&*",
"=&3:<]]]]]]]]]]1&&&&&&&&&&&&&&^]]]]]]]]]/(&&*",
"=&4:<]]]]]]]]]]]1^^^^^^^^^^^^1]]]]]]]]]]/(&&*",
"=&5:<]]]]]]]]]]]]]]]]]]]]]]]]]]]]]]]]]]]/(&&*",
"=&6:<]]]]]]]]]]]]]]]]]77]]]]]]]]]]]]]]]]/(&&*",
"=&8:<]]]]]]]]]]]]]]]]7&&7]]]]]]]]]]]]]]]/(&&*",
"=&9:<]]]]]]]]]]]]]]]]0aa0]]]]]]]]]]]]]]]/(&&*",
"=&bc<dddddddddddddddddeedddddddddddddddd/(&&*",
"=&fcghhhhhhhhhhhhhhhhhhhhhhhhhhhhhhhhhhhij&&*",
"=&kcghhhhhhhhhhhhhhhhhhhhhhhhhhhhhhhhhhhij&&*",
"=&lcghhhhhhhhhhhhhhhhhhhhhhhhhhhhhhhhhhhij&&*",
"=&mcghhhhhhhhhhhhhhhhhhhhhhhhhhhhhhhhhhhij&&*",
"=&ncghhhhhhhhhhhhhhhhhhhhhhhhhhhhhhhhhhhij&&*",
"=&ocghhhhhhhhhhhhhhhhhhhhhhhhhhhhhhhhhhhij&&*",
"=&pcghhhhhhhhhhhhhhhhhhhhhhhhhhhhhhhhhhhqj&&*",
"=&&rgeeeeeeeeeeeeeeeeeeeeeeeeeeeeeeeeeesst&&*",
"=&&uvwwwwwwwwwwwwwwwwwwwwwwwwwwwwwwwwwwxt&&&*",
"=&&&&&&&&&&&&&&&&&&&&&&&&&&&&&&&&&&&&&&&&&&&*",
"yzzzzzzzzzzzzzzzzzzzzzzzzzzzzzzzzzzzzzzzzzzzA"};
